<svg width="332" height="178" viewBox="0 0 332 178" fill="none" xmlns="http://www.w3.org/2000/svg">
<path opacity="0.8" d="M4.392 157V145.64H11.144V147.432H6.264V150.36H10.104V152.136H6.264V157H4.392ZM14.7633 146.072C14.7633 146.728 14.2513 147.256 13.5953 147.256C12.9553 147.256 12.4113 146.728 12.4113 146.072C12.4113 145.432 12.9553 144.904 13.5953 144.904C14.2513 144.904 14.7633 145.432 14.7633 146.072ZM12.7153 157V149H14.4753V157H12.7153ZM16.8403 157V149H18.6003V150.088C19.0803 149.288 19.9923 148.84 21.0323 148.84C22.8883 148.84 24.0883 150.152 24.0883 152.184V157H22.3283V152.472C22.3283 151.208 21.6883 150.44 20.6643 150.44C19.4963 150.44 18.6003 151.352 18.6003 153.064V157H16.8403ZM25.7643 153C25.7643 150.712 27.4283 148.84 29.6203 148.84C30.7723 148.84 31.7323 149.432 32.1803 150.072V145H33.9403V157H32.1803V155.928C31.7323 156.568 30.7723 157.16 29.6203 157.16C27.4283 157.16 25.7643 155.288 25.7643 153ZM32.3243 153C32.3243 151.56 31.3643 150.44 29.9403 150.44C28.5163 150.44 27.5563 151.56 27.5563 153C27.5563 154.44 28.5163 155.56 29.9403 155.56C31.3643 155.56 32.3243 154.44 32.3243 153ZM41.8503 155.928V157H40.0903V145H41.8503V150.072C42.2983 149.432 43.2743 148.84 44.4263 148.84C46.6183 148.84 48.2823 150.712 48.2823 153C48.2823 155.288 46.6183 157.16 44.4263 157.16C43.2743 157.16 42.2983 156.568 41.8503 155.928ZM46.4903 153C46.4903 151.56 45.5143 150.44 44.1063 150.44C42.6823 150.44 41.7063 151.56 41.7063 153C41.7063 154.44 42.6823 155.56 44.1063 155.56C45.5143 155.56 46.4903 154.44 46.4903 153ZM49.4986 153C49.4986 150.712 51.1626 148.84 53.3546 148.84C54.5066 148.84 55.4666 149.432 55.9146 150.072V149H57.6746V157H55.9146V155.928C55.4666 156.568 54.5066 157.16 53.3546 157.16C51.1626 157.16 49.4986 155.288 49.4986 153ZM56.0586 153C56.0586 151.56 55.0986 150.44 53.6746 150.44C52.2506 150.44 51.2906 151.56 51.2906 153C51.2906 154.44 52.2506 155.56 53.6746 155.56C55.0986 155.56 56.0586 154.44 56.0586 153ZM67.739 154.072C67.307 155.848 65.787 157.16 63.675 157.16C61.243 157.16 59.483 155.304 59.483 153C59.483 150.696 61.243 148.84 63.675 148.84C65.787 148.84 67.307 150.152 67.739 151.928H65.883C65.563 151.064 64.779 150.44 63.675 150.44C62.251 150.44 61.275 151.512 61.275 153C61.275 154.488 62.251 155.56 63.675 155.56C64.779 155.56 65.563 154.936 65.883 154.072H67.739ZM69.4028 157V145H71.1628V152.04L74.2188 149H76.4427L72.8748 152.568L77.2428 157H74.9868L71.1628 153.128V157H69.4028ZM78.1528 157V145H79.9128V157H78.1528ZM84.3258 146.072C84.3258 146.728 83.8138 147.256 83.1578 147.256C82.5178 147.256 81.9738 146.728 81.9738 146.072C81.9738 145.432 82.5178 144.904 83.1578 144.904C83.8138 144.904 84.3258 145.432 84.3258 146.072ZM82.2778 157V149H84.0378V157H82.2778ZM86.4028 157V149H88.1628V150.088C88.6428 149.288 89.5548 148.84 90.5948 148.84C92.4508 148.84 93.6508 150.152 93.6508 152.184V157H91.8908V152.472C91.8908 151.208 91.2508 150.44 90.2268 150.44C89.0588 150.44 88.1628 151.352 88.1628 153.064V157H86.4028ZM95.9028 157V145H97.6628V152.04L100.719 149H102.943L99.3748 152.568L103.743 157H101.487L97.6628 153.128V157H95.9028ZM115.914 153C115.914 155.32 114.09 157.16 111.722 157.16C109.354 157.16 107.53 155.32 107.53 153C107.53 150.68 109.354 148.84 111.722 148.84C114.09 148.84 115.914 150.68 115.914 153ZM109.306 153C109.306 154.424 110.298 155.528 111.722 155.528C113.13 155.528 114.122 154.424 114.122 153C114.122 151.576 113.13 150.472 111.722 150.472C110.298 150.472 109.306 151.576 109.306 153ZM117.684 160.344V149H119.444V150.072C119.892 149.432 120.868 148.84 122.02 148.84C124.212 148.84 125.876 150.712 125.876 153C125.876 155.288 124.212 157.16 122.02 157.16C120.868 157.16 119.892 156.568 119.444 155.928V160.344H117.684ZM124.084 153C124.084 151.56 123.108 150.44 121.7 150.44C120.276 150.44 119.3 151.56 119.3 153C119.3 154.44 120.276 155.56 121.7 155.56C123.108 155.56 124.084 154.44 124.084 153ZM127.668 160.344V149H129.428V150.072C129.876 149.432 130.852 148.84 132.004 148.84C134.196 148.84 135.86 150.712 135.86 153C135.86 155.288 134.196 157.16 132.004 157.16C130.852 157.16 129.876 156.568 129.428 155.928V160.344H127.668ZM134.068 153C134.068 151.56 133.092 150.44 131.684 150.44C130.26 150.44 129.284 151.56 129.284 153C129.284 154.44 130.26 155.56 131.684 155.56C133.092 155.56 134.068 154.44 134.068 153ZM145.461 153C145.461 155.32 143.637 157.16 141.269 157.16C138.901 157.16 137.077 155.32 137.077 153C137.077 150.68 138.901 148.84 141.269 148.84C143.637 148.84 145.461 150.68 145.461 153ZM138.853 153C138.853 154.424 139.845 155.528 141.269 155.528C142.677 155.528 143.669 154.424 143.669 153C143.669 151.576 142.677 150.472 141.269 150.472C139.845 150.472 138.853 151.576 138.853 153ZM147.231 157V149H148.991V150.424C149.295 149.512 150.191 148.92 151.103 148.92C151.327 148.92 151.551 148.936 151.791 148.984V150.792C151.487 150.696 151.231 150.648 150.911 150.648C149.903 150.648 148.991 151.496 148.991 153.096V157H147.231ZM158.093 156.904C157.741 157.016 157.325 157.08 156.781 157.08C155.245 157.08 154.045 156.232 154.045 154.424V150.568H152.381V149H154.045V146.776H155.805V149H158.093V150.568H155.805V154.136C155.805 155.128 156.237 155.496 157.149 155.496C157.485 155.496 157.837 155.432 158.093 155.336V156.904ZM159.65 153.784V149H161.41V153.496C161.41 154.776 161.986 155.56 163.01 155.56C164.146 155.56 164.962 154.648 164.962 152.936V149H166.722V157H164.962V155.912C164.498 156.712 163.65 157.16 162.626 157.16C160.786 157.16 159.65 155.832 159.65 153.784ZM169.09 157V149H170.85V150.088C171.33 149.288 172.242 148.84 173.282 148.84C175.138 148.84 176.338 150.152 176.338 152.184V157H174.578V152.472C174.578 151.208 173.938 150.44 172.914 150.44C171.746 150.44 170.85 151.352 170.85 153.064V157H169.09ZM180.638 146.072C180.638 146.728 180.126 147.256 179.47 147.256C178.83 147.256 178.286 146.728 178.286 146.072C178.286 145.432 178.83 144.904 179.47 144.904C180.126 144.904 180.638 145.432 180.638 146.072ZM178.59 157V149H180.35V157H178.59ZM187.499 156.904C187.147 157.016 186.731 157.08 186.187 157.08C184.651 157.08 183.451 156.232 183.451 154.424V150.568H181.787V149H183.451V146.776H185.211V149H187.499V150.568H185.211V154.136C185.211 155.128 185.643 155.496 186.555 155.496C186.891 155.496 187.243 155.432 187.499 155.336V156.904ZM191.216 146.072C191.216 146.728 190.704 147.256 190.048 147.256C189.408 147.256 188.864 146.728 188.864 146.072C188.864 145.432 189.408 144.904 190.048 144.904C190.704 144.904 191.216 145.432 191.216 146.072ZM189.168 157V149H190.928V157H189.168ZM200.749 154.488C200.301 155.992 198.861 157.16 196.829 157.16C194.445 157.16 192.733 155.4 192.733 153C192.733 150.632 194.381 148.84 196.845 148.84C199.293 148.84 201.005 150.712 200.845 153.432H194.477C194.541 154.648 195.469 155.608 196.893 155.608C197.773 155.608 198.541 155.256 198.909 154.488H200.749ZM196.797 150.312C195.693 150.312 194.781 150.952 194.541 152.184H198.957C198.685 150.888 197.773 150.312 196.797 150.312ZM208.605 154.792C208.605 156.344 207.261 157.16 205.469 157.16C203.597 157.16 202.141 156.168 202.045 154.568H203.869C204.013 155.432 204.733 155.752 205.517 155.752C206.285 155.752 206.813 155.448 206.813 154.904C206.813 154.36 206.461 154.056 205.629 153.848L204.317 153.496C202.941 153.144 202.269 152.248 202.269 151.08C202.269 149.736 203.453 148.84 205.245 148.84C206.973 148.84 208.173 149.8 208.301 151.24H206.541C206.381 150.568 205.853 150.248 205.229 150.248C204.557 150.248 204.061 150.552 204.061 151.064C204.061 151.576 204.461 151.848 205.133 152.024L206.477 152.376C207.917 152.744 208.605 153.576 208.605 154.792ZM213.577 153C213.577 150.712 215.241 148.84 217.433 148.84C218.585 148.84 219.545 149.432 219.993 150.072V149H221.753V157H219.993V155.928C219.545 156.568 218.585 157.16 217.433 157.16C215.241 157.16 213.577 155.288 213.577 153ZM220.137 153C220.137 151.56 219.177 150.44 217.753 150.44C216.329 150.44 215.369 151.56 215.369 153C215.369 154.44 216.329 155.56 217.753 155.56C219.177 155.56 220.137 154.44 220.137 153ZM231.817 154.072C231.385 155.848 229.865 157.16 227.753 157.16C225.321 157.16 223.561 155.304 223.561 153C223.561 150.696 225.321 148.84 227.753 148.84C229.865 148.84 231.385 150.152 231.817 151.928H229.961C229.641 151.064 228.857 150.44 227.753 150.44C226.329 150.44 225.353 151.512 225.353 153C225.353 154.488 226.329 155.56 227.753 155.56C228.857 155.56 229.641 154.936 229.961 154.072H231.817ZM233.481 157V149H235.241V150.424C235.545 149.512 236.441 148.92 237.353 148.92C237.577 148.92 237.801 148.936 238.041 148.984V150.792C237.737 150.696 237.481 150.648 237.161 150.648C236.153 150.648 235.241 151.496 235.241 153.096V157H233.481ZM247.086 153C247.086 155.32 245.262 157.16 242.894 157.16C240.526 157.16 238.702 155.32 238.702 153C238.702 150.68 240.526 148.84 242.894 148.84C245.262 148.84 247.086 150.68 247.086 153ZM240.478 153C240.478 154.424 241.47 155.528 242.894 155.528C244.302 155.528 245.294 154.424 245.294 153C245.294 151.576 244.302 150.472 242.894 150.472C241.47 150.472 240.478 151.576 240.478 153ZM254.808 154.792C254.808 156.344 253.464 157.16 251.672 157.16C249.8 157.16 248.344 156.168 248.248 154.568H250.072C250.216 155.432 250.936 155.752 251.72 155.752C252.488 155.752 253.016 155.448 253.016 154.904C253.016 154.36 252.664 154.056 251.832 153.848L250.52 153.496C249.144 153.144 248.472 152.248 248.472 151.08C248.472 149.736 249.656 148.84 251.448 148.84C253.176 148.84 254.376 149.8 254.504 151.24H252.744C252.584 150.568 252.056 150.248 251.432 150.248C250.76 150.248 250.264 150.552 250.264 151.064C250.264 151.576 250.664 151.848 251.336 152.024L252.68 152.376C254.12 152.744 254.808 153.576 254.808 154.792ZM262.542 154.792C262.542 156.344 261.198 157.16 259.406 157.16C257.534 157.16 256.078 156.168 255.982 154.568H257.806C257.95 155.432 258.67 155.752 259.454 155.752C260.222 155.752 260.75 155.448 260.75 154.904C260.75 154.36 260.398 154.056 259.566 153.848L258.254 153.496C256.878 153.144 256.206 152.248 256.206 151.08C256.206 149.736 257.39 148.84 259.182 148.84C260.91 148.84 262.11 149.8 262.238 151.24H260.478C260.318 150.568 259.79 150.248 259.166 150.248C258.494 150.248 257.998 150.552 257.998 151.064C257.998 151.576 258.398 151.848 259.07 152.024L260.414 152.376C261.854 152.744 262.542 153.576 262.542 154.792ZM268.09 157V149H269.85V150.088C270.298 149.336 271.098 148.84 272.122 148.84C273.306 148.84 274.17 149.432 274.602 150.424C275.082 149.4 276.106 148.84 277.162 148.84C278.97 148.84 280.042 150.168 280.042 152.216V157H278.282V152.504C278.282 151.256 277.818 150.44 276.858 150.44C275.722 150.44 274.954 151.384 274.954 153.064V157H273.194V152.504C273.194 151.256 272.73 150.44 271.77 150.44C270.634 150.44 269.85 151.384 269.85 153.064V157H268.09ZM282.181 153.784V149H283.941V153.496C283.941 154.776 284.517 155.56 285.541 155.56C286.677 155.56 287.493 154.648 287.493 152.936V149H289.253V157H287.493V155.912C287.029 156.712 286.181 157.16 285.157 157.16C283.317 157.16 282.181 155.832 282.181 153.784ZM291.622 157V145H293.382V157H291.622ZM300.531 156.904C300.179 157.016 299.763 157.08 299.219 157.08C297.683 157.08 296.483 156.232 296.483 154.424V150.568H294.819V149H296.483V146.776H298.243V149H300.531V150.568H298.243V154.136C298.243 155.128 298.674 155.496 299.587 155.496C299.923 155.496 300.275 155.432 300.531 155.336V156.904ZM304.248 146.072C304.248 146.728 303.736 147.256 303.08 147.256C302.44 147.256 301.896 146.728 301.896 146.072C301.896 145.432 302.44 144.904 303.08 144.904C303.736 144.904 304.248 145.432 304.248 146.072ZM302.2 157V149H303.96V157H302.2ZM306.325 160.344V149H308.085V150.072C308.533 149.432 309.509 148.84 310.661 148.84C312.853 148.84 314.517 150.712 314.517 153C314.517 155.288 312.853 157.16 310.661 157.16C309.509 157.16 308.533 156.568 308.085 155.928V160.344H306.325ZM312.725 153C312.725 151.56 311.749 150.44 310.341 150.44C308.917 150.44 307.941 151.56 307.941 153C307.941 154.44 308.917 155.56 310.341 155.56C311.749 155.56 312.725 154.44 312.725 153ZM316.309 157V145H318.069V157H316.309ZM327.89 154.488C327.442 155.992 326.002 157.16 323.97 157.16C321.586 157.16 319.874 155.4 319.874 153C319.874 150.632 321.522 148.84 323.986 148.84C326.434 148.84 328.146 150.712 327.986 153.432H321.618C321.682 154.648 322.61 155.608 324.034 155.608C324.914 155.608 325.682 155.256 326.05 154.488H327.89ZM323.938 150.312C322.834 150.312 321.922 150.952 321.682 152.184H326.098C325.826 150.888 324.914 150.312 323.938 150.312ZM3.608 171C3.608 168.712 5.272 166.84 7.464 166.84C8.616 166.84 9.576 167.432 10.024 168.072V163H11.784V175H10.024V173.928C9.576 174.568 8.616 175.16 7.464 175.16C5.272 175.16 3.608 173.288 3.608 171ZM10.168 171C10.168 169.56 9.208 168.44 7.784 168.44C6.36 168.44 5.4 169.56 5.4 171C5.4 172.44 6.36 173.56 7.784 173.56C9.208 173.56 10.168 172.44 10.168 171ZM21.9764 171C21.9764 173.32 20.1524 175.16 17.7844 175.16C15.4164 175.16 13.5924 173.32 13.5924 171C13.5924 168.68 15.4164 166.84 17.7844 166.84C20.1524 166.84 21.9764 168.68 21.9764 171ZM15.3684 171C15.3684 172.424 16.3604 173.528 17.7844 173.528C19.1924 173.528 20.1844 172.424 20.1844 171C20.1844 169.576 19.1924 168.472 17.7844 168.472C16.3604 168.472 15.3684 169.576 15.3684 171ZM23.7465 175V167H25.5065V168.088C25.9545 167.336 26.7545 166.84 27.7785 166.84C28.9625 166.84 29.8265 167.432 30.2585 168.424C30.7385 167.4 31.7625 166.84 32.8185 166.84C34.6265 166.84 35.6985 168.168 35.6985 170.216V175H33.9385V170.504C33.9385 169.256 33.4745 168.44 32.5145 168.44C31.3785 168.44 30.6105 169.384 30.6105 171.064V175H28.8505V170.504C28.8505 169.256 28.3865 168.44 27.4265 168.44C26.2905 168.44 25.5065 169.384 25.5065 171.064V175H23.7465ZM37.3736 171C37.3736 168.712 39.0376 166.84 41.2296 166.84C42.3816 166.84 43.3416 167.432 43.7896 168.072V167H45.5496V175H43.7896V173.928C43.3416 174.568 42.3816 175.16 41.2296 175.16C39.0376 175.16 37.3736 173.288 37.3736 171ZM43.9336 171C43.9336 169.56 42.9736 168.44 41.5496 168.44C40.1256 168.44 39.1656 169.56 39.1656 171C39.1656 172.44 40.1256 173.56 41.5496 173.56C42.9736 173.56 43.9336 172.44 43.9336 171ZM49.982 164.072C49.982 164.728 49.47 165.256 48.814 165.256C48.174 165.256 47.63 164.728 47.63 164.072C47.63 163.432 48.174 162.904 48.814 162.904C49.47 162.904 49.982 163.432 49.982 164.072ZM47.934 175V167H49.694V175H47.934ZM52.059 175V167H53.819V168.088C54.299 167.288 55.211 166.84 56.251 166.84C58.107 166.84 59.307 168.152 59.307 170.184V175H57.547V170.472C57.547 169.208 56.907 168.44 55.883 168.44C54.715 168.44 53.819 169.352 53.819 171.064V175H52.059ZM67.511 172.792C67.511 174.344 66.167 175.16 64.375 175.16C62.503 175.16 61.047 174.168 60.951 172.568H62.775C62.919 173.432 63.639 173.752 64.423 173.752C65.191 173.752 65.719 173.448 65.719 172.904C65.719 172.36 65.367 172.056 64.535 171.848L63.223 171.496C61.847 171.144 61.175 170.248 61.175 169.08C61.175 167.736 62.359 166.84 64.151 166.84C65.879 166.84 67.079 167.8 67.207 169.24H65.447C65.287 168.568 64.759 168.248 64.135 168.248C63.463 168.248 62.967 168.552 62.967 169.064C62.967 169.576 63.367 169.848 64.039 170.024L65.383 170.376C66.823 170.744 67.511 171.576 67.511 172.792ZM75.107 164.072C75.107 164.728 74.595 165.256 73.939 165.256C73.299 165.256 72.755 164.728 72.755 164.072C72.755 163.432 73.299 162.904 73.939 162.904C74.595 162.904 75.107 163.432 75.107 164.072ZM73.059 175V167H74.819V175H73.059ZM77.184 175V167H78.944V168.088C79.424 167.288 80.336 166.84 81.376 166.84C83.232 166.84 84.432 168.152 84.432 170.184V175H82.672V170.472C82.672 169.208 82.032 168.44 81.008 168.44C79.84 168.44 78.944 169.352 78.944 171.064V175H77.184ZM96.4016 172.792C96.4016 174.344 95.0576 175.16 93.2656 175.16C91.3936 175.16 89.9376 174.168 89.8416 172.568H91.6656C91.8096 173.432 92.5296 173.752 93.3136 173.752C94.0816 173.752 94.6096 173.448 94.6096 172.904C94.6096 172.36 94.2576 172.056 93.4256 171.848L92.1136 171.496C90.7376 171.144 90.0656 170.248 90.0656 169.08C90.0656 167.736 91.2496 166.84 93.0416 166.84C94.7696 166.84 95.9696 167.8 96.0976 169.24H94.3376C94.1776 168.568 93.6496 168.248 93.0256 168.248C92.3536 168.248 91.8576 168.552 91.8576 169.064C91.8576 169.576 92.2576 169.848 92.9296 170.024L94.2736 170.376C95.7136 170.744 96.4016 171.576 96.4016 172.792ZM105.64 172.488C105.192 173.992 103.752 175.16 101.72 175.16C99.336 175.16 97.624 173.4 97.624 171C97.624 168.632 99.272 166.84 101.736 166.84C104.184 166.84 105.896 168.712 105.736 171.432H99.368C99.432 172.648 100.36 173.608 101.784 173.608C102.664 173.608 103.432 173.256 103.8 172.488H105.64ZM101.688 168.312C100.584 168.312 99.672 168.952 99.432 170.184H103.848C103.576 168.888 102.664 168.312 101.688 168.312ZM115.223 172.072C114.791 173.848 113.271 175.16 111.159 175.16C108.727 175.16 106.967 173.304 106.967 171C106.967 168.696 108.727 166.84 111.159 166.84C113.271 166.84 114.791 168.152 115.223 169.928H113.367C113.047 169.064 112.263 168.44 111.159 168.44C109.735 168.44 108.759 169.512 108.759 171C108.759 172.488 109.735 173.56 111.159 173.56C112.263 173.56 113.047 172.936 113.367 172.072H115.223ZM124.695 171C124.695 173.32 122.871 175.16 120.503 175.16C118.135 175.16 116.311 173.32 116.311 171C116.311 168.68 118.135 166.84 120.503 166.84C122.871 166.84 124.695 168.68 124.695 171ZM118.087 171C118.087 172.424 119.079 173.528 120.503 173.528C121.911 173.528 122.903 172.424 122.903 171C122.903 169.576 121.911 168.472 120.503 168.472C119.079 168.472 118.087 169.576 118.087 171ZM126.465 175V167H128.225V168.088C128.705 167.288 129.617 166.84 130.657 166.84C132.513 166.84 133.713 168.152 133.713 170.184V175H131.953V170.472C131.953 169.208 131.313 168.44 130.289 168.44C129.121 168.44 128.225 169.352 128.225 171.064V175H126.465ZM135.389 171C135.389 168.712 137.053 166.84 139.245 166.84C140.397 166.84 141.357 167.432 141.805 168.072V163H143.565V175H141.805V173.928C141.357 174.568 140.397 175.16 139.245 175.16C137.053 175.16 135.389 173.288 135.389 171ZM141.949 171C141.949 169.56 140.989 168.44 139.565 168.44C138.141 168.44 137.181 169.56 137.181 171C137.181 172.44 138.141 173.56 139.565 173.56C140.989 173.56 141.949 172.44 141.949 171ZM151.902 172.792C151.902 174.344 150.558 175.16 148.766 175.16C146.894 175.16 145.438 174.168 145.342 172.568H147.166C147.31 173.432 148.03 173.752 148.814 173.752C149.582 173.752 150.11 173.448 150.11 172.904C150.11 172.36 149.758 172.056 148.926 171.848L147.614 171.496C146.238 171.144 145.566 170.248 145.566 169.08C145.566 167.736 146.75 166.84 148.542 166.84C150.27 166.84 151.47 167.8 151.598 169.24H149.838C149.678 168.568 149.15 168.248 148.526 168.248C147.854 168.248 147.358 168.552 147.358 169.064C147.358 169.576 147.758 169.848 148.43 170.024L149.774 170.376C151.214 170.744 151.902 171.576 151.902 172.792Z" fill="#2F353F" style="fill:#2F353F;fill:color(display-p3 0.1843 0.2078 0.2471);fill-opacity:1;"/>
<g filter="url(#filter0_d_32_305)">
<path d="M6.51156 111V82.6H16.9116C21.6716 82.6 25.3516 86.32 25.3516 90.84C25.3516 93 24.4716 94.72 23.1116 95.92C25.5916 97.12 27.3116 99.44 27.3116 102.64C27.3116 107.36 23.5516 111 18.5116 111H6.51156ZM12.3116 94.24H16.3516C18.3516 94.24 19.7116 92.84 19.7116 91.08C19.7116 89.36 18.3516 87.88 16.3516 87.88H12.3116V94.24ZM12.3116 105.68H18.1116C20.2716 105.68 21.6716 104.28 21.6716 102.44C21.6716 100.6 20.2716 99.16 18.1116 99.16H12.3116V105.68ZM30.5078 102.6V91H35.9878V101.68C35.9878 104.68 37.0278 106.44 39.3878 106.44C41.8278 106.44 43.5078 104.64 43.5078 100.76V91H48.9878V111H43.5078V108.72C42.4678 110.32 40.5878 111.44 38.0278 111.44C33.1878 111.44 30.5078 107.92 30.5078 102.6ZM53.8634 111V81H59.3434V111H53.8634ZM64.2056 111V81H69.6856V98.36L76.1656 91H82.7656L74.8456 100L84.6056 111H77.8456L69.6856 101.8V111H64.2056ZM92.7116 102.2H98.5116C98.9116 104.76 101.112 106.12 103.632 106.12C105.952 106.12 107.672 105.04 107.672 103.24C107.672 101.72 106.592 100.56 103.872 99.8L100.872 98.92C96.3916 97.64 93.4716 94.84 93.4316 90.52C93.3916 85.28 97.2716 82.12 102.952 82.12C109.072 82.12 112.712 86.52 112.912 90.76H107.152C106.512 88.36 104.632 87.48 102.952 87.48C100.912 87.48 99.3116 88.44 99.2716 90.12C99.2316 91.88 100.512 92.84 102.832 93.52L106.152 94.44C110.752 95.72 113.512 98.64 113.512 103.04C113.512 107.88 109.592 111.48 103.632 111.48C96.8316 111.48 92.9516 106.88 92.7116 102.2ZM136.743 104.48C135.542 108.52 131.582 111.44 126.502 111.44C120.382 111.44 116.022 107.04 116.022 100.96C116.022 95 120.462 90.56 126.542 90.56C132.422 90.56 137.262 94.76 136.982 102.28H121.382C121.622 104.64 123.382 106.68 126.782 106.68C128.702 106.68 130.382 105.84 131.022 104.48H136.743ZM126.382 95C123.862 95 122.102 96.48 121.582 98.68H130.982C130.302 96 128.262 95 126.382 95ZM139.294 101C139.294 95.32 143.374 90.56 148.694 90.56C151.454 90.56 153.574 91.96 154.454 93.24V91H159.934V111H154.454V108.76C153.574 110.04 151.454 111.44 148.694 111.44C143.374 111.44 139.294 106.68 139.294 101ZM154.894 101C154.894 97.88 152.854 95.56 149.854 95.56C146.854 95.56 144.814 97.88 144.814 101C144.814 104.12 146.854 106.44 149.854 106.44C152.854 106.44 154.894 104.12 154.894 101ZM164.862 111V91H170.342V94.2C171.022 92.24 173.062 90.76 175.302 90.76C175.862 90.76 176.462 90.8 177.142 91V96.56C176.302 96.28 175.542 96.12 174.662 96.12C172.062 96.12 170.342 98.16 170.342 101.44V111H164.862ZM199.02 103.36C197.94 107.96 194.3 111.44 188.78 111.44C182.7 111.44 178.26 106.8 178.26 101C178.26 95.2 182.7 90.56 188.78 90.56C194.3 90.56 197.94 94.04 199.02 98.64H193.34C192.58 96.84 191.1 95.52 188.78 95.52C185.9 95.52 183.78 97.68 183.78 101C183.78 104.32 185.9 106.48 188.78 106.48C191.1 106.48 192.58 105.16 193.34 103.36H199.02ZM202.343 111V81H207.823V93.28C208.863 91.68 210.943 90.56 213.543 90.56C218.383 90.56 221.263 94.08 221.263 99.28V111H215.783V100.2C215.783 97.32 214.543 95.56 212.263 95.56C209.743 95.56 207.823 97.4 207.823 101.24V111H202.343Z" fill="#2F353F" style="fill:#2F353F;fill:color(display-p3 0.1843 0.2078 0.2471);fill-opacity:1;"/>
<path d="M6.51156 111V82.6H16.9116C21.6716 82.6 25.3516 86.32 25.3516 90.84C25.3516 93 24.4716 94.72 23.1116 95.92C25.5916 97.12 27.3116 99.44 27.3116 102.64C27.3116 107.36 23.5516 111 18.5116 111H6.51156ZM12.3116 94.24H16.3516C18.3516 94.24 19.7116 92.84 19.7116 91.08C19.7116 89.36 18.3516 87.88 16.3516 87.88H12.3116V94.24ZM12.3116 105.68H18.1116C20.2716 105.68 21.6716 104.28 21.6716 102.44C21.6716 100.6 20.2716 99.16 18.1116 99.16H12.3116V105.68ZM30.5078 102.6V91H35.9878V101.68C35.9878 104.68 37.0278 106.44 39.3878 106.44C41.8278 106.44 43.5078 104.64 43.5078 100.76V91H48.9878V111H43.5078V108.72C42.4678 110.32 40.5878 111.44 38.0278 111.44C33.1878 111.44 30.5078 107.92 30.5078 102.6ZM53.8634 111V81H59.3434V111H53.8634ZM64.2056 111V81H69.6856V98.36L76.1656 91H82.7656L74.8456 100L84.6056 111H77.8456L69.6856 101.8V111H64.2056ZM92.7116 102.2H98.5116C98.9116 104.76 101.112 106.12 103.632 106.12C105.952 106.12 107.672 105.04 107.672 103.24C107.672 101.72 106.592 100.56 103.872 99.8L100.872 98.92C96.3916 97.64 93.4716 94.84 93.4316 90.52C93.3916 85.28 97.2716 82.12 102.952 82.12C109.072 82.12 112.712 86.52 112.912 90.76H107.152C106.512 88.36 104.632 87.48 102.952 87.48C100.912 87.48 99.3116 88.44 99.2716 90.12C99.2316 91.88 100.512 92.84 102.832 93.52L106.152 94.44C110.752 95.72 113.512 98.64 113.512 103.04C113.512 107.88 109.592 111.48 103.632 111.48C96.8316 111.48 92.9516 106.88 92.7116 102.2ZM136.743 104.48C135.542 108.52 131.582 111.44 126.502 111.44C120.382 111.44 116.022 107.04 116.022 100.96C116.022 95 120.462 90.56 126.542 90.56C132.422 90.56 137.262 94.76 136.982 102.28H121.382C121.622 104.64 123.382 106.68 126.782 106.68C128.702 106.68 130.382 105.84 131.022 104.48H136.743ZM126.382 95C123.862 95 122.102 96.48 121.582 98.68H130.982C130.302 96 128.262 95 126.382 95ZM139.294 101C139.294 95.32 143.374 90.56 148.694 90.56C151.454 90.56 153.574 91.96 154.454 93.24V91H159.934V111H154.454V108.76C153.574 110.04 151.454 111.44 148.694 111.44C143.374 111.44 139.294 106.68 139.294 101ZM154.894 101C154.894 97.88 152.854 95.56 149.854 95.56C146.854 95.56 144.814 97.88 144.814 101C144.814 104.12 146.854 106.44 149.854 106.44C152.854 106.44 154.894 104.12 154.894 101ZM164.862 111V91H170.342V94.2C171.022 92.24 173.062 90.76 175.302 90.76C175.862 90.76 176.462 90.8 177.142 91V96.56C176.302 96.28 175.542 96.12 174.662 96.12C172.062 96.12 170.342 98.16 170.342 101.44V111H164.862ZM199.02 103.36C197.94 107.96 194.3 111.44 188.78 111.44C182.7 111.44 178.26 106.8 178.26 101C178.26 95.2 182.7 90.56 188.78 90.56C194.3 90.56 197.94 94.04 199.02 98.64H193.34C192.58 96.84 191.1 95.52 188.78 95.52C185.9 95.52 183.78 97.68 183.78 101C183.78 104.32 185.9 106.48 188.78 106.48C191.1 106.48 192.58 105.16 193.34 103.36H199.02ZM202.343 111V81H207.823V93.28C208.863 91.68 210.943 90.56 213.543 90.56C218.383 90.56 221.263 94.08 221.263 99.28V111H215.783V100.2C215.783 97.32 214.543 95.56 212.263 95.56C209.743 95.56 207.823 97.4 207.823 101.24V111H202.343Z" fill="url(#paint0_linear_32_305)" style=""/>
</g>
<g filter="url(#filter1_d_32_305)">
<path d="M22.6364 2C33.4812 2 42.2727 10.7915 42.2727 21.6364C42.2727 25.9052 40.9106 29.8558 38.5972 33.0774C38.7874 33.194 38.9666 33.3382 39.1324 33.504L50.0414 44.4131C51.3195 45.6912 51.3195 47.7634 50.0414 49.0414C48.7634 50.3195 46.6912 50.3195 45.4131 49.0414L34.504 38.1324C34.3382 37.9666 34.194 37.7874 34.0712 37.5984C30.8558 39.9106 26.9052 41.2727 22.6364 41.2727C11.7915 41.2727 3 32.4812 3 21.6364C3 10.7915 11.7915 2 22.6364 2ZM22.6364 8.54545C15.4065 8.54545 9.54545 14.4065 9.54545 21.6364C9.54545 28.8663 15.4065 34.7273 22.6364 34.7273C29.8663 34.7273 35.7273 28.8663 35.7273 21.6364C35.7273 14.4065 29.8663 8.54545 22.6364 8.54545Z" fill="url(#paint1_linear_32_305)" style=""/>
</g>
<defs>
<filter id="filter0_d_32_305" x="3.51154" y="79" width="220.752" height="36.48" filterUnits="userSpaceOnUse" color-interpolation-filters="sRGB">
<feFlood flood-opacity="0" result="BackgroundImageFix"/>
<feColorMatrix in="SourceAlpha" type="matrix" values="0 0 0 0 0 0 0 0 0 0 0 0 0 0 0 0 0 0 127 0" result="hardAlpha"/>
<feOffset dy="1"/>
<feGaussianBlur stdDeviation="1.5"/>
<feComposite in2="hardAlpha" operator="out"/>
<feColorMatrix type="matrix" values="0 0 0 0 0 0 0 0 0 0 0 0 0 0 0 0 0 0 0.15 0"/>
<feBlend mode="normal" in2="BackgroundImageFix" result="effect1_dropShadow_32_305"/>
<feBlend mode="normal" in="SourceGraphic" in2="effect1_dropShadow_32_305" result="shape"/>
</filter>
<filter id="filter1_d_32_305" x="0" y="0" width="54" height="54" filterUnits="userSpaceOnUse" color-interpolation-filters="sRGB">
<feFlood flood-opacity="0" result="BackgroundImageFix"/>
<feColorMatrix in="SourceAlpha" type="matrix" values="0 0 0 0 0 0 0 0 0 0 0 0 0 0 0 0 0 0 127 0" result="hardAlpha"/>
<feOffset dy="1"/>
<feGaussianBlur stdDeviation="1.5"/>
<feComposite in2="hardAlpha" operator="out"/>
<feColorMatrix type="matrix" values="0 0 0 0 0 0 0 0 0 0 0 0 0 0 0 0 0 0 0.15 0"/>
<feBlend mode="normal" in2="BackgroundImageFix" result="effect1_dropShadow_32_305"/>
<feBlend mode="normal" in="SourceGraphic" in2="effect1_dropShadow_32_305" result="shape"/>
</filter>
<linearGradient id="paint0_linear_32_305" x1="85.875" y1="74" x2="89.0428" y2="121.734" gradientUnits="userSpaceOnUse">
<stop stop-color="#98A2B3" style="stop-color:#98A2B3;stop-color:color(display-p3 0.5950 0.6344 0.7000);stop-opacity:1;"/>
<stop offset="1" stop-color="#3A4159" style="stop-color:#3A4159;stop-color:color(display-p3 0.2275 0.2540 0.3500);stop-opacity:1;"/>
</linearGradient>
<linearGradient id="paint1_linear_32_305" x1="21" y1="2" x2="36.6906" y2="49.0721" gradientUnits="userSpaceOnUse">
<stop stop-color="#98A2B3" style="stop-color:#98A2B3;stop-color:color(display-p3 0.5950 0.6344 0.7000);stop-opacity:1;"/>
<stop offset="1" stop-color="#3A4159" style="stop-color:#3A4159;stop-color:color(display-p3 0.2275 0.2540 0.3500);stop-opacity:1;"/>
</linearGradient>
</defs>
</svg>
