<svg width="195" height="33" viewBox="0 0 195 33" fill="none" xmlns="http://www.w3.org/2000/svg">
<path fill-rule="evenodd" clip-rule="evenodd" d="M179.887 0.152344L180.05 0.15746C181.398 0.242295 182.475 1.37148 182.475 2.74003V16.5759C182.6 16.2895 182.778 16.0204 183.013 15.7859L190.581 8.21644C191.593 7.2046 193.233 7.2046 194.245 8.21644C195.257 9.22829 195.257 10.8688 194.245 11.8807L186.677 19.4501C186.45 19.6768 186.191 19.8498 185.915 19.975L194.245 28.306C195.257 29.3179 195.257 30.9584 194.245 31.9702C193.233 32.9821 191.593 32.9821 190.581 31.9702L182.475 23.8628V24.8635C182.475 27.0224 181.591 28.9863 180.167 30.4106C178.685 31.8923 176.709 32.7291 174.61 32.7291C173.666 32.7291 172.76 32.5612 171.92 32.2538C170.833 31.856 169.857 31.2243 169.053 30.4208C167.682 29.05 166.814 27.1756 166.751 25.1058C166.738 25.0175 166.73 24.9349 166.73 24.8635V17.0994C166.73 15.7145 166.161 14.453 165.246 13.5371C164.33 12.6214 163.069 12.0527 161.684 12.0527C160.299 12.0527 159.037 12.6214 158.122 13.5371C157.206 14.4531 156.638 15.7145 156.638 17.0994L156.638 24.8635C156.638 27.0294 155.753 28.9965 154.329 30.4208C153.526 31.2243 152.55 31.856 151.463 32.2538C150.623 32.5612 149.717 32.7291 148.772 32.7291C146.674 32.7291 144.697 31.8923 143.216 30.4106C143.077 30.2715 142.944 30.1259 142.816 29.9768C142.237 30.5168 141.599 30.9949 140.906 31.3902C139.416 32.2416 137.693 32.7291 135.86 32.7291C133.046 32.7291 130.49 31.58 128.639 29.7287C126.788 27.877 125.639 25.3208 125.639 22.507V2.74014C125.639 1.31703 126.803 0.152344 128.226 0.152344C129.65 0.152344 130.814 1.31685 130.814 2.74014V22.507C130.814 23.8919 131.382 25.1534 132.298 26.0693C133.214 26.985 134.475 27.5537 135.86 27.5537C137.245 27.5537 138.506 26.985 139.422 26.0693C140.338 25.1534 140.906 23.8919 140.906 22.507L140.906 18.9765L140.908 17.643C140.908 16.2197 142.072 15.0553 143.495 15.0553L143.658 15.0604C145.006 15.1452 146.083 16.2744 146.083 17.643V24.8635C146.083 25.6044 146.384 26.2783 146.87 26.7665C147.358 27.2522 148.032 27.5537 148.773 27.5537C149.51 27.5537 150.182 27.25 150.67 26.7614C151.159 26.2727 151.463 25.6005 151.463 24.8635V17.0994C151.463 14.2856 152.612 11.7294 154.463 9.87774C155.108 9.23219 155.839 8.67198 156.638 8.2162C158.128 7.36483 159.851 6.87725 161.684 6.87725C164.498 6.87725 167.054 8.02646 168.905 9.87774C170.756 11.7294 171.905 14.2856 171.905 17.0994V23.1099L171.92 23.1099V24.8635C171.92 25.6005 172.223 26.2727 172.712 26.7614C173.201 27.25 173.873 27.5537 174.61 27.5537C175.351 27.5537 176.025 27.2522 176.513 26.7665C176.998 26.2783 177.3 25.6044 177.3 24.8635V2.74003C177.3 1.31668 178.464 0.152344 179.887 0.152344ZM161.666 15.8318L161.845 15.8368C163.499 15.9293 164.812 17.3001 164.812 18.9779C164.812 20.7156 163.404 22.1239 161.666 22.1239C159.928 22.1239 158.52 20.7155 158.52 18.9779C158.52 17.2402 159.928 15.8318 161.666 15.8318ZM143.5 6.90112L143.679 6.9061C145.333 6.99864 146.646 8.36937 146.646 10.0471C146.646 11.7848 145.238 13.1932 143.5 13.1932C141.763 13.1932 140.354 11.7848 140.354 10.0471C140.354 8.30947 141.762 6.90112 143.5 6.90112Z" fill="#B2B6BF" style="fill:#B2B6BF;fill:color(display-p3 0.6980 0.7137 0.7490);fill-opacity:1;"/>
<path d="M0 24.1921H6.44003C6.511 25.4472 6.9845 26.3942 7.86051 27.0335C8.80755 27.6728 10.0624 27.9805 11.6487 27.9805C12.7853 27.9805 13.7559 27.7672 14.5845 27.3174C15.3423 26.8677 15.7211 26.2757 15.7211 25.5182C15.7211 24.3817 14.3952 23.5294 11.7435 22.9612C10.607 22.7716 9.75469 22.5821 9.18642 22.3929C5.84812 21.5641 3.59881 20.5933 2.46229 19.4571C1.2075 18.3205 0.568263 16.8053 0.568263 14.9113C0.568263 12.5199 1.49166 10.5312 3.31466 8.94455C5.20889 7.50064 7.67117 6.7666 10.7017 6.7666C13.9926 6.7666 16.5971 7.50064 18.5622 8.94455C20.3853 10.5312 21.3797 12.5672 21.498 15.1004H17.4257C16.2184 15.1004 15.3186 14.5559 14.6793 13.4904L13.9216 12.7329C13.164 12.1647 12.1222 11.8807 10.7965 11.8807C9.54156 11.8807 8.59457 12.0699 7.95528 12.449C7.38702 12.8277 7.10286 13.396 7.10286 14.1534C7.10286 15.1714 8.73652 16.024 12.0276 16.7105C12.7853 16.971 13.3298 17.0892 13.827 17.0892C17.047 17.918 19.2961 18.865 20.551 19.9306C21.7586 21.0668 22.3504 22.5821 22.3504 24.4764C22.3504 27.2465 21.3323 29.401 19.3199 30.9163C17.4257 32.3134 14.5845 32.9999 10.7965 32.9999C7.19763 32.9999 4.52221 32.2658 2.74639 30.8215C0.923396 29.3772 0 27.2465 0 24.4764V24.1921Z" fill="#B2B6BF" style="fill:#B2B6BF;fill:color(display-p3 0.6980 0.7137 0.7490);fill-opacity:1;"/>
<path d="M102.84 24.6466C103.449 24.6466 103.876 25.2532 103.669 25.8264C102.929 27.876 101.738 29.4773 100.096 30.6442C98.1518 32.0733 95.7153 32.7997 92.7868 32.7997C89.2257 32.7997 86.4376 31.6519 84.4461 29.3323C82.455 27.0831 81.4473 23.8735 81.4473 19.6798C81.4473 15.6737 82.4079 12.5576 84.3527 10.3087C86.3438 7.98915 89.1319 6.84131 92.693 6.84131C96.4413 6.84131 99.3467 7.96597 101.408 10.2149C103.4 12.5344 104.407 14.5456 104.407 18.6691V20.8983C104.407 20.1664 104.407 20.9043 104.407 20.9074C104.406 21.2662 104.109 21.554 103.751 21.554H89.2789C88.6146 21.554 88.1145 22.1482 88.2114 22.8055C88.4059 24.1256 88.8377 25.1418 89.5066 25.865C90.3268 26.8723 91.5448 27.3644 93.1615 27.3644C94.2159 27.3644 95.1295 27.1533 95.879 26.7083C96.2541 26.591 96.5351 26.2398 96.9098 25.865C96.9804 25.6774 97.2147 25.4196 97.613 25.1151C98.011 24.8106 98.5968 24.6466 99.3467 24.6466H102.84ZM96.8832 17.3371C97.3106 17.3371 97.6361 16.9553 97.5741 16.5324C97.386 15.2489 96.9728 14.2722 96.3479 13.5884C95.5278 12.7216 94.3796 12.2766 92.8802 12.2766C91.4981 12.2766 90.3735 12.7216 89.5066 13.5884C88.781 14.3141 88.3345 15.3188 88.167 16.5753C88.1134 16.9773 88.4226 17.3371 88.8282 17.3371H96.8832Z" fill="#B2B6BF" style="fill:#B2B6BF;fill:color(display-p3 0.6980 0.7137 0.7490);fill-opacity:1;"/>
<path d="M109.231 31.6971C108.337 31.6971 107.612 30.9719 107.612 30.0774V19.6081C107.612 14.7351 109.135 11.4785 111.641 9.48703C114.008 7.61284 117.358 6.76953 120.731 6.76953C121.249 6.76953 121.669 7.18909 121.669 7.70663V12.2439C121.669 12.895 121.141 13.4229 120.49 13.4229H119.513C117.709 13.4229 116.351 13.8683 115.483 14.7351C114.617 15.6019 114.172 16.984 114.172 18.8582V30.0774C114.172 30.9719 113.446 31.6971 112.552 31.6971H109.231Z" fill="#B2B6BF" style="fill:#B2B6BF;fill:color(display-p3 0.6980 0.7137 0.7490);fill-opacity:1;"/>
<path d="M51.6984 31.6971C50.8039 31.6971 50.0788 30.9719 50.0788 30.0774V19.6081C50.0788 14.7351 51.6017 11.4785 54.1084 9.48703C56.4746 7.61284 59.825 6.76953 63.1986 6.76953C63.7161 6.76953 64.1357 7.18909 64.1357 7.70663V12.2439C64.1357 12.895 63.6078 13.4229 62.9566 13.4229H61.9802C60.1762 13.4229 58.8177 13.8683 57.9505 14.7351C57.0837 15.6019 56.6386 16.984 56.6386 18.8582V30.0774C56.6386 30.9719 55.9136 31.6971 55.0191 31.6971H51.6984Z" fill="#B2B6BF" style="fill:#B2B6BF;fill:color(display-p3 0.6980 0.7137 0.7490);fill-opacity:1;"/>
<path d="M78.4958 0H74.8895L74.8902 0.00431115C72.5028 0.0483145 70.7587 0.58411 69.6823 1.59319C68.4875 2.71782 67.9016 4.40478 67.9016 6.65371V30.9939C67.9016 31.7324 68.5003 32.3311 69.2388 32.3311H72.9368C73.6753 32.3311 74.274 31.7324 74.274 30.9939V14.0405C74.274 13.7477 74.5051 13.5106 74.7946 13.4972H77.9138C78.2434 13.4972 78.5106 13.2299 78.5106 12.9003V9.49979C78.5106 9.17019 78.2434 8.90298 77.9138 8.90298H77.508H74.7367H74.274V7.21603C74.274 6.46651 74.438 5.97444 74.7429 5.71663C74.9925 5.54492 75.359 5.43696 75.8305 5.38314H78.4958C78.9554 5.38314 79.328 5.01057 79.328 4.55091V0.832237C79.328 0.372604 78.9554 0 78.4958 0Z" fill="#B2B6BF" style="fill:#B2B6BF;fill:color(display-p3 0.6980 0.7137 0.7490);fill-opacity:1;"/>
<path fill-rule="evenodd" clip-rule="evenodd" d="M25.1521 22.5968C25.1521 25.4605 26.3217 28.0619 28.2057 29.9464C30.0897 31.8305 32.6916 33 35.5551 33C37.4204 33 39.1745 32.5038 40.6914 31.6373C41.5038 31.1735 42.248 30.6034 42.9049 29.9464C44.7889 28.062 45.9585 25.4605 45.9585 22.5968V15.4131V14.6953V9.32397C45.9585 7.86952 44.7794 6.69043 43.325 6.69043C41.8705 6.69043 40.6915 7.86952 40.6915 9.32397V14.6953V22.5969C40.6915 24.0063 40.1126 25.2901 39.1807 26.2222C38.2489 27.1542 36.9651 27.7329 35.5555 27.7329C34.1456 27.7329 32.8618 27.1542 31.9299 26.2222C30.998 25.2901 30.4192 24.0063 30.4192 22.5968V9.32404C30.4192 7.87554 29.2342 6.69043 27.7857 6.69043C26.3372 6.69043 25.1521 7.87575 25.1521 9.32404C25.1521 14.6701 25.1521 17.2507 25.1521 22.5968Z" fill="#B2B6BF" style="fill:#B2B6BF;fill:color(display-p3 0.6980 0.7137 0.7490);fill-opacity:1;"/>
</svg>
