<svg width="195" height="33" viewBox="0 0 195 33" fill="none" xmlns="http://www.w3.org/2000/svg">
<path fill-rule="evenodd" clip-rule="evenodd" d="M179.887 0.152229L180.05 0.157345C181.398 0.242181 182.475 1.37136 182.475 2.73991V16.5758C182.6 16.2894 182.778 16.0203 183.013 15.7858L190.581 8.21633C191.593 7.20449 193.233 7.20449 194.245 8.21633C195.257 9.22818 195.257 10.8687 194.245 11.8806L186.677 19.45C186.45 19.6767 186.191 19.8497 185.915 19.9748L194.245 28.3059C195.257 29.3177 195.257 30.9583 194.245 31.9701C193.233 32.982 191.593 32.982 190.581 31.9701L182.475 23.8627V24.8634C182.475 27.0223 181.591 28.9862 180.167 30.4105C178.685 31.8922 176.709 32.729 174.61 32.729C173.666 32.729 172.76 32.5611 171.92 32.2536C170.833 31.8559 169.857 31.2242 169.053 30.4207C167.682 29.0499 166.814 27.1755 166.751 25.1057C166.738 25.0174 166.73 24.9348 166.73 24.8634V17.0993C166.73 15.7144 166.161 14.4529 165.246 13.537C164.33 12.6213 163.069 12.0526 161.684 12.0526C160.299 12.0526 159.037 12.6213 158.122 13.537C157.206 14.453 156.638 15.7143 156.638 17.0993L156.638 24.8634C156.638 27.0293 155.753 28.9964 154.329 30.4207C153.526 31.2242 152.55 31.8559 151.463 32.2536C150.623 32.5611 149.717 32.729 148.772 32.729C146.674 32.729 144.697 31.8922 143.216 30.4105C143.077 30.2714 142.944 30.1258 142.816 29.9767C142.237 30.5167 141.599 30.9948 140.906 31.3901C139.416 32.2415 137.693 32.729 135.86 32.729C133.046 32.729 130.49 31.5798 128.639 29.7286C126.788 27.8769 125.639 25.3207 125.639 22.5069V2.74003C125.639 1.31691 126.803 0.152229 128.226 0.152229C129.65 0.152229 130.814 1.31673 130.814 2.74003V22.5069C130.814 23.8918 131.382 25.1533 132.298 26.0692C133.214 26.9849 134.475 27.5536 135.86 27.5536C137.245 27.5536 138.506 26.9849 139.422 26.0692C140.338 25.1532 140.906 23.8918 140.906 22.5069L140.906 18.9764L140.908 17.6429C140.908 16.2196 142.072 15.0552 143.495 15.0552L143.658 15.0603C145.006 15.1451 146.083 16.2743 146.083 17.6429V24.8634C146.083 25.6043 146.384 26.2781 146.87 26.7664C147.358 27.2521 148.032 27.5536 148.773 27.5536C149.51 27.5536 150.182 27.2498 150.67 26.7613C151.159 26.2726 151.463 25.6004 151.463 24.8634V17.0993C151.463 14.2855 152.612 11.7293 154.463 9.87763C155.108 9.23208 155.839 8.67186 156.638 8.21609C158.128 7.36472 159.851 6.87714 161.684 6.87714C164.498 6.87714 167.054 8.02634 168.905 9.87763C170.756 11.7293 171.905 14.2855 171.905 17.0993V23.1098L171.92 23.1098V24.8634C171.92 25.6004 172.223 26.2726 172.712 26.7613C173.201 27.2498 173.873 27.5536 174.61 27.5536C175.351 27.5536 176.025 27.2521 176.513 26.7664C176.998 26.2781 177.3 25.6043 177.3 24.8634V2.73991C177.3 1.31657 178.464 0.152229 179.887 0.152229ZM161.666 15.8317L161.845 15.8367C163.499 15.9292 164.812 17.2999 164.812 18.9778C164.812 20.7154 163.404 22.1238 161.666 22.1238C159.928 22.1238 158.52 20.7154 158.52 18.9778C158.52 17.2401 159.928 15.8317 161.666 15.8317ZM143.5 6.901L143.679 6.90598C145.333 6.99852 146.646 8.36925 146.646 10.047C146.646 11.7847 145.238 13.1931 143.5 13.1931C141.763 13.1931 140.354 11.7847 140.354 10.047C140.354 8.30936 141.762 6.901 143.5 6.901Z" fill="url(#paint0_linear_13_5)" style=""/>
<path d="M0 24.1923H6.44003C6.511 25.4474 6.9845 26.3944 7.86051 27.0336C8.80755 27.6729 10.0624 27.9807 11.6487 27.9807C12.7853 27.9807 13.7559 27.7673 14.5845 27.3176C15.3423 26.8679 15.7211 26.2758 15.7211 25.5184C15.7211 24.3818 14.3952 23.5296 11.7435 22.9613C10.607 22.7718 9.75469 22.5822 9.18642 22.3931C5.84812 21.5642 3.59881 20.5934 2.46229 19.4572C1.2075 18.3207 0.568263 16.8054 0.568263 14.9114C0.568263 12.5201 1.49166 10.5313 3.31466 8.9447C5.20889 7.50079 7.67117 6.76675 10.7017 6.76675C13.9926 6.76675 16.5971 7.50079 18.5622 8.9447C20.3853 10.5313 21.3797 12.5673 21.498 15.1006H17.4257C16.2184 15.1006 15.3186 14.5561 14.6793 13.4906L13.9216 12.7331C13.164 12.1648 12.1222 11.8809 10.7965 11.8809C9.54156 11.8809 8.59457 12.07 7.95528 12.4491C7.38702 12.8278 7.10286 13.3961 7.10286 14.1536C7.10286 15.1716 8.73652 16.0242 12.0276 16.7106C12.7853 16.9712 13.3298 17.0894 13.827 17.0894C17.047 17.9182 19.2961 18.8652 20.551 19.9308C21.7586 21.067 22.3504 22.5822 22.3504 24.4766C22.3504 27.2466 21.3323 29.4012 19.3199 30.9164C17.4257 32.3135 14.5845 33 10.7965 33C7.19763 33 4.52221 32.266 2.74639 30.8217C0.923396 29.3774 0 27.2466 0 24.4766V24.1923Z" fill="#535763" style="fill:#535763;fill:color(display-p3 0.3255 0.3412 0.3882);fill-opacity:1;"/>
<path d="M102.84 24.6465C103.449 24.6465 103.876 25.2532 103.669 25.8263C102.929 27.8759 101.738 29.4773 100.096 30.6441C98.1518 32.0733 95.7153 32.7996 92.7868 32.7996C89.2257 32.7996 86.4376 31.6518 84.4461 29.3323C82.455 27.083 81.4473 23.8735 81.4473 19.6798C81.4473 15.6737 82.4079 12.5575 84.3527 10.3086C86.3438 7.9891 89.1319 6.84126 92.693 6.84126C96.4413 6.84126 99.3467 7.96592 101.408 10.2148C103.4 12.5343 104.407 14.5456 104.407 18.669V20.8982C104.407 20.1664 104.407 20.9043 104.407 20.9073C104.406 21.2661 104.109 21.5539 103.751 21.5539H89.2789C88.6146 21.5539 88.1145 22.1481 88.2114 22.8054C88.4059 24.1255 88.8377 25.1418 89.5066 25.8649C90.3268 26.8723 91.5448 27.3643 93.1615 27.3643C94.2159 27.3643 95.1295 27.1532 95.879 26.7082C96.2541 26.5909 96.5351 26.2397 96.9098 25.8649C96.9804 25.6774 97.2147 25.4196 97.613 25.1151C98.011 24.8106 98.5968 24.6465 99.3467 24.6465H102.84ZM96.8832 17.3371C97.3106 17.3371 97.6361 16.9552 97.5741 16.5323C97.386 15.2488 96.9728 14.2722 96.3479 13.5884C95.5278 12.7216 94.3796 12.2765 92.8802 12.2765C91.4981 12.2765 90.3735 12.7216 89.5066 13.5884C88.781 14.314 88.3345 15.3188 88.167 16.5752C88.1134 16.9773 88.4226 17.3371 88.8282 17.3371H96.8832Z" fill="#535763" style="fill:#535763;fill:color(display-p3 0.3255 0.3412 0.3882);fill-opacity:1;"/>
<path d="M109.231 31.6972C108.337 31.6972 107.612 30.9721 107.612 30.0776V19.6082C107.612 14.7353 109.135 11.4787 111.641 9.48721C114.008 7.61302 117.358 6.76971 120.731 6.76971C121.249 6.76971 121.669 7.18927 121.669 7.70681V12.244C121.669 12.8952 121.141 13.4231 120.49 13.4231H119.513C117.709 13.4231 116.351 13.8684 115.483 14.7353C114.617 15.6021 114.172 16.9842 114.172 18.8584V30.0776C114.172 30.9721 113.446 31.6972 112.552 31.6972H109.231Z" fill="#535763" style="fill:#535763;fill:color(display-p3 0.3255 0.3412 0.3882);fill-opacity:1;"/>
<path d="M51.6984 31.6972C50.8039 31.6972 50.0788 30.9721 50.0788 30.0776V19.6082C50.0788 14.7353 51.6017 11.4787 54.1084 9.48721C56.4746 7.61302 59.825 6.76971 63.1986 6.76971C63.7161 6.76971 64.1357 7.18927 64.1357 7.70681V12.244C64.1357 12.8952 63.6078 13.4231 62.9566 13.4231H61.9802C60.1762 13.4231 58.8177 13.8684 57.9505 14.7353C57.0837 15.6021 56.6386 16.9842 56.6386 18.8584V30.0776C56.6386 30.9721 55.9136 31.6972 55.0191 31.6972H51.6984Z" fill="#535763" style="fill:#535763;fill:color(display-p3 0.3255 0.3412 0.3882);fill-opacity:1;"/>
<path d="M78.4958 0H74.8895L74.8902 0.00431115C72.5028 0.0483145 70.7587 0.58411 69.6823 1.59319C68.4875 2.71782 67.9016 4.40478 67.9016 6.65371V30.9939C67.9016 31.7324 68.5003 32.3311 69.2388 32.3311H72.9368C73.6753 32.3311 74.274 31.7324 74.274 30.9939V14.0405C74.274 13.7477 74.5051 13.5106 74.7946 13.4972H77.9138C78.2434 13.4972 78.5106 13.2299 78.5106 12.9003V9.49979C78.5106 9.17019 78.2434 8.90298 77.9138 8.90298H77.508H74.7367H74.274V7.21603C74.274 6.46651 74.438 5.97444 74.7429 5.71663C74.9925 5.54492 75.359 5.43696 75.8305 5.38314H78.4958C78.9554 5.38314 79.328 5.01057 79.328 4.55091V0.832237C79.328 0.372604 78.9554 0 78.4958 0Z" fill="#535763" style="fill:#535763;fill:color(display-p3 0.3255 0.3412 0.3882);fill-opacity:1;"/>
<path fill-rule="evenodd" clip-rule="evenodd" d="M25.1521 22.5968C25.1521 25.4605 26.3217 28.0619 28.2057 29.9464C30.0897 31.8305 32.6916 33 35.5551 33C37.4204 33 39.1745 32.5038 40.6914 31.6373C41.5038 31.1735 42.248 30.6034 42.9049 29.9464C44.7889 28.062 45.9585 25.4605 45.9585 22.5968V15.4131V14.6953V9.32397C45.9585 7.86951 44.7794 6.69043 43.325 6.69043C41.8705 6.69043 40.6915 7.86951 40.6915 9.32397V14.6953V22.5969C40.6915 24.0063 40.1126 25.2901 39.1807 26.2222C38.2489 27.1542 36.9651 27.7329 35.5555 27.7329C34.1456 27.7329 32.8618 27.1542 31.9299 26.2222C30.998 25.2901 30.4192 24.0063 30.4192 22.5968V9.32404C30.4192 7.87553 29.2342 6.69043 27.7857 6.69043C26.3372 6.69043 25.1521 7.87574 25.1521 9.32404C25.1521 14.6701 25.1521 17.2507 25.1521 22.5968Z" fill="#535763" style="fill:#535763;fill:color(display-p3 0.3255 0.3412 0.3882);fill-opacity:1;"/>
<defs>
<linearGradient id="paint0_linear_13_5" x1="125.639" y1="16.4406" x2="195.004" y2="16.4406" gradientUnits="userSpaceOnUse">
<stop stop-color="#199DFB" style="stop-color:#199DFB;stop-color:color(display-p3 0.0980 0.6157 0.9843);stop-opacity:1;"/>
<stop offset="1" stop-color="#9159FF" style="stop-color:#9159FF;stop-color:color(display-p3 0.5686 0.3490 1.0000);stop-opacity:1;"/>
</linearGradient>
</defs>
</svg>
