<svg id="Layer_1" data-name="Layer 1" xmlns="http://www.w3.org/2000/svg" xmlns:xlink="http://www.w3.org/1999/xlink" viewBox="0 0 152.77 152.77"><defs><style>.cls-1{fill:#1f064a;}.cls-2,.cls-3,.cls-4{fill-rule:evenodd;}.cls-2{fill:url(#linear-gradient);}.cls-3{fill:url(#linear-gradient-2);}.cls-4{fill:url(#linear-gradient-3);}</style><linearGradient id="linear-gradient" x1="1024.65" y1="539.94" x2="1123.49" y2="539.94" gradientUnits="userSpaceOnUse"><stop offset="0" stop-color="#479bf4"/><stop offset="1" stop-color="#8660f6"/></linearGradient><linearGradient id="linear-gradient-2" x1="1024.65" y1="537.31" x2="1123.49" y2="537.31" xlink:href="#linear-gradient"/><linearGradient id="linear-gradient-3" x1="1024.65" y1="508.18" x2="1123.49" y2="508.18" xlink:href="#linear-gradient"/></defs><path class="cls-1" d="M1027.31,616a27.68,27.68,0,0,1-27.68-27.68V490.94a27.68,27.68,0,0,1,27.68-27.68h97.41a27.68,27.68,0,0,1,27.68,27.68v97.42A27.68,27.68,0,0,1,1124.72,616" transform="translate(-999.63 -463.26)"/><path class="cls-2" d="M1094,514.79Zm-59,9.74h0a8.42,8.42,0,0,1,8.4,8.4v23.44a8.73,8.73,0,0,0,17.46,0v-25.2a33.09,33.09,0,0,1,9.74-23.44,33.48,33.48,0,0,1,7.06-5.4,33.2,33.2,0,0,1,49.56,28.84V573.5a8.4,8.4,0,0,1-16.8,0V531.17a16.38,16.38,0,0,0-32.76,0v25.2a25.53,25.53,0,0,1-51.06,0V532.93a8.42,8.42,0,0,1,8.4-8.4Z" transform="translate(-999.63 -463.26)"/><path class="cls-3" d="M1094,527.12a10.19,10.19,0,1,0,10.19,10.19A10.19,10.19,0,0,0,1094,527.12Z" transform="translate(-999.63 -463.26)"/><path class="cls-4" d="M1035,498a10.19,10.19,0,1,0,10.19,10.19A10.19,10.19,0,0,0,1035,498Z" transform="translate(-999.63 -463.26)"/></svg>