<?xml version="1.0" encoding="utf-8"?>
<svg width="16" height="16" viewBox="0 0 16 16" fill="none" xmlns="http://www.w3.org/2000/svg">
  <g>
    <rect width="16" height="16" />
    <g id="Icon" transform="translate(1 1)">
      <path id="Path" d="M13.542 12.5487L10.8885 9.90709C11.7324 8.86294 12.2378 7.53606 12.2378 6.09149C12.2378 2.72723 9.49826 0 6.11892 0C4.53058 0 3.08368 0.602555 1.99603 1.59051C2.07873 1.57719 2.16345 1.56997 2.24993 1.56997C2.66286 1.56997 3.03858 1.72816 3.31973 1.98677C4.11765 1.44645 5.0811 1.13038 6.11892 1.13038C8.87123 1.13038 11.1024 3.35158 11.1024 6.09149C11.1024 8.83147 8.87123 11.0526 6.11892 11.0526C3.3666 11.0526 1.13547 8.83147 1.13547 6.09149C1.13547 5.52279 1.2328 4.97706 1.40981 4.46833C1.00905 4.21663 0.72998 3.79054 0.680777 3.29694C0.245829 4.13393 0 5.08407 0 6.09149C0 9.45576 2.73957 12.183 6.11892 12.183C7.37556 12.183 8.54365 11.8056 9.51536 11.1588L12.2267 13.858C12.4731 14.1032 12.9532 14.0229 13.2991 13.6786L13.3617 13.6162C13.7076 13.2719 13.7882 12.794 13.542 12.5487Z" fill="#3D3D3D" fill-rule="evenodd" transform="translate(0.315 0)" />
      <path id="Combined Shape" d="M2.00448 0.831583C2.75995 0.307903 3.67766 0 4.66804 0C7.24612 0 9.33608 2.08059 9.33608 4.64712C9.33608 7.21365 7.24612 9.29424 4.66804 9.29424C2.08996 9.29424 0 7.21365 0 4.64712C0 4.13041 0.0859802 3.63405 0.242296 3.16977C0.403785 3.2214 0.576818 3.24984 0.756979 3.24984C1.24018 3.24984 1.67314 3.04837 1.96525 2.73023L1.96991 2.7336L1.92399 2.79455L3.4336 3.81118C3.43286 3.81892 3.43239 3.82674 3.43221 3.83463L3.40471 4.99944L3.11742 5.23497L1.79783 2.98295L1.60858 3.04575L2.9647 5.36018L2.50382 5.73803L1.39461 5.32786C1.34862 5.23912 1.27709 5.16571 1.18934 5.11755L1.5455 3.10855L1.35625 3.17134L1.00691 5.05927C0.986975 5.05688 0.966789 5.05531 0.946224 5.05531C0.667529 5.05531 0.441571 5.28026 0.441571 5.5577C0.441571 5.83515 0.667529 6.06009 0.946224 6.06009C1.16833 6.06009 1.35657 5.91698 1.424 5.71853L2.22082 5.97005L2.08366 6.08249C1.95154 5.98305 1.78698 5.92407 1.60858 5.92407C1.17309 5.92407 0.820061 6.27552 0.820061 6.70906C0.820061 7.14259 1.17309 7.49404 1.60858 7.49404C2.04407 7.49404 2.3971 7.14259 2.3971 6.70906C2.3971 6.58661 2.36894 6.47072 2.31872 6.36744L2.64827 6.10497L3.12582 6.25571C3.1238 6.27392 3.12254 6.29245 3.12254 6.31129C3.12254 6.45033 3.17931 6.57617 3.27103 6.66717L1.92399 8.38365L2.17631 8.50925L3.48419 6.79289C3.52954 6.80627 3.57748 6.81368 3.62719 6.81368C3.65274 6.81368 3.67766 6.81117 3.7022 6.80753L5.20423 9.20004L5.51964 9.13724L6.02038 7.45815C6.16034 7.58453 6.34611 7.66153 6.54995 7.66153C6.98544 7.66153 7.33847 7.31008 7.33847 6.87654C7.33847 6.71984 7.29235 6.57387 7.21289 6.45134L7.32218 6.20653L8.10599 7.69287L8.29523 7.50447L7.43475 5.95439L7.90992 4.89005L9.30454 4.92971L9.30454 4.67852L8.01979 4.64394L8.1318 4.39305C8.5355 4.35878 8.85243 4.02171 8.85243 3.61094C8.85243 3.1774 8.4994 2.82595 8.06391 2.82595C7.91507 2.82595 7.77585 2.86701 7.65708 2.93836L6.72965 2.37414L9.00521 2.94238L8.92989 2.76667L6.01553 1.93969L5.9042 1.87196C5.89749 1.85915 5.89025 1.84666 5.8825 1.83453C5.94683 1.72681 5.98601 1.60245 5.99196 1.4695L6.90743 0.659388L6.59203 0.470992L5.94416 1.16203C5.83305 0.862512 5.54369 0.648964 5.20423 0.648964C5.02915 0.648964 4.86739 0.705772 4.73654 0.801884L4.19493 0.0941983L3.87952 0.156997L4.541 1.0092C4.46172 1.13164 4.41571 1.27745 4.41571 1.43395C4.41571 1.69741 4.54608 1.93055 4.74611 2.07293L2.36556 2.60615L2.61789 2.79455L4.71874 2.31651L4.34357 3.53035L3.76723 3.51705C3.74572 3.51656 3.72464 3.51814 3.7042 3.5216L2.89387 3.02335L2.15137 2.47984C2.27781 2.26604 2.34979 2.02008 2.34979 1.75837C2.34979 1.40801 2.22047 1.08617 2.00448 0.831583ZM7.27791 3.67412L6.48859 3.85271L5.83681 2.43333C5.88692 2.37611 5.92402 2.30757 5.94398 2.23204L7.42102 3.1563C7.32932 3.28459 7.27539 3.44149 7.27539 3.61094C7.27539 3.63221 7.27624 3.65328 7.27791 3.67412ZM4.96327 2.56604L5.0221 2.3584C5.03127 2.37383 5.04125 2.38874 5.05195 2.40306L4.96327 2.56604ZM5.2593 4.13084L6.22604 3.91211L5.59893 2.58549C5.55377 2.59874 5.50608 2.60615 5.45656 2.60615C5.39695 2.60615 5.34005 2.59535 5.28699 2.57645L4.85056 3.54205L4.94566 3.54425C5.12645 3.54839 5.26958 3.69735 5.2653 3.87695L5.2593 4.13084ZM7.85747 4.36874L7.73531 4.63629L7.16714 4.62099C7.12494 4.38606 6.91904 4.20753 6.67088 4.20753C6.66444 4.20753 6.65826 4.20822 6.65195 4.20847L6.61921 4.13715L7.36205 3.96908C7.46228 4.16334 7.64149 4.31057 7.85747 4.36874ZM6.40234 4.28508L6.36012 4.19577L5.25185 4.44652L5.23767 5.04752C5.23702 5.07518 5.23292 5.10195 5.22578 5.12744L5.34914 5.27071L6.1931 4.87062C6.17594 4.82013 6.16623 4.76619 6.16623 4.70992C6.16623 4.53082 6.26066 4.37407 6.40234 4.28508ZM7.62317 4.88189L7.26944 5.6566L6.97052 5.11811L6.95929 5.12188C7.04748 5.06052 7.11491 4.97198 7.14948 4.86842L7.62317 4.88189ZM6.14944 6.20021C6.16551 6.19076 6.18195 6.18186 6.19873 6.17353L6.508 5.18505C6.43458 5.16012 6.36859 5.11918 6.31478 5.0658L5.50914 5.45654L6.14944 6.20021ZM6.54995 6.09156C6.50743 6.09156 6.4657 6.09491 6.425 6.10136L6.69043 5.2113C6.72462 5.20998 6.75793 5.20534 6.7901 5.19755L7.15934 5.89774L7.00513 6.23548C6.87655 6.14483 6.7195 6.09156 6.54995 6.09156ZM3.72421 5.33791L3.82083 5.34014L3.63754 5.8094C3.63407 5.80934 3.63072 5.8089 3.62719 5.8089C3.57181 5.8089 3.51863 5.81807 3.46873 5.83452L3.31573 5.5734L3.63102 5.3223C3.66044 5.33174 3.69172 5.33716 3.72421 5.33791ZM4.90264 5.36516L4.08889 5.34634L3.86949 5.87057C3.90065 5.88765 3.92961 5.90806 3.95635 5.93098L5.04942 5.4128L5.0003 5.35279C4.96933 5.36158 4.93653 5.36594 4.90264 5.36516ZM4.10093 6.13953L5.20568 5.60372L5.89255 6.44292C5.8097 6.56716 5.76143 6.71624 5.76143 6.87654C5.76143 7.01443 5.79714 7.144 5.85986 7.25662L5.33039 8.94884L3.9327 6.71044C4.05356 6.61863 4.13184 6.47419 4.13184 6.31129C4.13184 6.25088 4.12055 6.19316 4.10093 6.13953ZM2.91712 5.89086L3.16157 5.69617L3.29879 5.93035C3.27242 5.95283 3.24858 5.97814 3.22738 6.00558L2.91712 5.89086Z" fill="#FFA300" fill-rule="evenodd" transform="translate(1.766 1.444)" />
      <path id="Oval" d="M0.993535 1.97817C1.54225 1.97817 1.98707 1.53534 1.98707 0.989083C1.98707 0.442827 1.54225 0 0.993535 0C0.444821 0 0 0.442827 0 0.989083C0 1.53534 0.444821 1.97817 0.993535 1.97817Z" fill="#FF8F00" fill-rule="evenodd" transform="translate(1.577 2.208)" />
      <path id="Oval" d="M0.578269 1.15136C0.897638 1.15136 1.15654 0.893615 1.15654 0.575678C1.15654 0.25774 0.897638 0 0.578269 0C0.2589 0 0 0.25774 0 0.575678C0 0.893615 0.2589 1.15136 0.578269 1.15136Z" fill="#FF8F00" fill-rule="evenodd" transform="translate(0 1.779)" />
      <path id="Oval" d="M0.515187 1.02576C0.799718 1.02576 1.03037 0.796134 1.03037 0.512879C1.03037 0.229624 0.799718 0 0.515187 0C0.230657 0 0 0.229624 0 0.512879C0 0.796134 0.230657 1.02576 0.515187 1.02576Z" fill="#FF8F00" fill-rule="evenodd" transform="translate(0.315 0.209)" />
    </g>
  </g>
</svg>