<?xml version="1.0" encoding="utf-8"?>
<svg width="16" height="16" viewBox="0 0 16 16" fill="none" xmlns="http://www.w3.org/2000/svg">
  <g>
    <rect width="16" height="16" />
    <g fill="#ED2324" fill-rule="evenodd">
      <path id="Icon" d="M7.60845 12L2.90617 14.4721L3.80423 9.23607L0 5.52786L5.25731 4.76393L7.60845 0L9.95959 4.76393L15.2169 5.52786L11.4127 9.23607L12.3107 14.4721L7.60845 12Z" />
      <path d="M7.60845 12L11.1956 13.8859L12.3107 14.4721L12.0978 13.2304L11.4127 9.23607L14.3147 6.40727L15.2169 5.52786L13.9701 5.3467L9.95959 4.76393L8.16603 1.12978L7.60845 0L7.05087 1.12978L5.25731 4.76393L1.24678 5.3467L0 5.52786L0.90218 6.40727L3.80423 9.23607L3.11915 13.2304L2.90617 14.4721L4.02133 13.8859L7.60845 12ZM4.2343 12.6441L7.14311 11.1149L7.60845 10.8702L10.9826 12.6441L10.3382 8.88695L13.0679 6.2261L9.29553 5.67794L7.60845 2.25955L5.92138 5.67794L2.14896 6.2261L4.87871 8.88695L4.2343 12.6441Z" fill="#2D3540" fill-rule="evenodd" fill-opacity="0.502" />
    </g>
  </g>
</svg>