<?xml version="1.0" encoding="utf-8"?>
<svg width="16" height="16" viewBox="0 0 16 16" fill="none" xmlns="http://www.w3.org/2000/svg">
  <g>
    <rect width="16" height="16" />
    <path id="Icon" d="M1.14984 3.03343L7.77461 3.03343L7.77461 4.97649L5.28354 5.17614C1.2605 5.48987 0 6.6029 0 9.71678L0 10.3457C0 12.6295 1.53335 14 3.888 14C5.74918 14 6.81131 13.5422 8.13168 12.1366L8.34466 12.1366L8.34466 13.6226L11 13.6226L11 0L1.14984 0L1.14984 3.0327L1.14984 3.03343ZM7.77461 9.60196C6.96235 10.459 5.72203 11.0302 4.70862 11.0302C3.61377 11.0302 3.14952 10.6017 3.17527 9.65974C3.20311 8.34486 3.66249 8.03186 5.77354 7.83149L7.77113 7.63184L7.77461 9.60196Z" fill="#FF8800" transform="translate(2 1)" />
  </g>
</svg>