<?xml version="1.0" encoding="utf-8"?>
<svg width="16" height="16" viewBox="0 0 16 16" fill="none" xmlns="http://www.w3.org/2000/svg">
  <g>
    <rect width="16" height="16" />
    <path id="Icon" d="M13.8199 4.92308C13.8199 5.23077 13.6721 5.26923 13.3025 5.26923C12.8961 5.26923 12.8222 5.19231 12.7852 4.88461C12.7113 4.07692 12.194 3.38461 11.3072 3.34615C11.0485 3.30769 10.9746 3.23077 10.9746 2.84615C10.9746 2.5 11.0115 2.34615 11.2702 2.34615C12.7483 2.38461 13.8199 3.65385 13.8199 4.92308ZM16 4.92308C16 2.53846 14.448 0 10.8268 0L3.69515 0C3.54734 0 3.43649 0.0769231 3.43649 0.230769C3.43649 0.307692 3.47344 0.384615 3.54734 0.423077C3.806 0.653846 4.17552 0.884615 4.69284 1.15385C5.17321 1.42308 5.57968 1.57692 5.94919 1.73077C6.097 1.80769 6.1709 1.88462 6.1709 1.96154C6.1709 2.07692 6.097 2.19231 5.91224 2.19231L0.25866 2.19231C0.073903 2.15385 0 2.26923 0 2.38462C0 2.5 0.0369515 2.57692 0.110855 2.65385C0.554273 3.15385 1.2933 3.76923 2.3649 4.46154C3.28868 5.07692 4.47113 5.73077 5.39492 6.19231C5.54273 6.26923 5.61663 6.34615 5.61663 6.46154C5.61663 6.57692 5.54273 6.65385 5.35797 6.65385L2.73441 6.65385C2.58661 6.65385 2.5127 6.73077 2.5127 6.84615C2.5127 6.92308 2.54965 7 2.62356 7.07692C3.21478 7.65385 4.17552 8.23077 5.43187 8.80769C7.13164 9.53846 8.83141 10 10.7529 10C14.4111 10 16 7.15385 16 4.92308ZM11.2333 8.34615C9.45958 8.34615 7.94457 6.84615 7.94457 4.92308C7.94457 3.07692 9.42263 1.57692 11.2333 1.57692C13.0808 1.57692 14.5219 3.07692 14.5219 4.92308C14.5219 6.80769 13.0808 8.34615 11.2333 8.34615Z" fill="#FF642D" transform="translate(0 3)" />
  </g>
</svg>