<?xml version="1.0" encoding="utf-8"?>
<svg width="16" height="16" viewBox="0 0 16 16" fill="none" xmlns="http://www.w3.org/2000/svg">
  <g>
    <rect width="16" height="16" />
    <path id="Combined Shape" d="M10.8 0L3.2 0C2.0799 0 1.51984 0 1.09202 0.217987Q0.809776 0.361797 0.585786 0.585786Q0.361797 0.809776 0.217987 1.09202C0 1.51984 0 2.0799 0 3.2L0 10.8C0 11.9201 0 12.4802 0.217987 12.908Q0.361797 13.1902 0.585786 13.4142Q0.809776 13.6382 1.09202 13.782C1.51984 14 2.0799 14 3.2 14L10.8 14C11.9201 14 12.4802 14 12.908 13.782Q13.1902 13.6382 13.4142 13.4142Q13.6382 13.1902 13.782 12.908C14 12.4802 14 11.9201 14 10.8L14 3.2C14 2.0799 14 1.51984 13.782 1.09202Q13.6382 0.809776 13.4142 0.585786Q13.1902 0.361797 12.908 0.217987C12.4802 0 11.9201 0 10.8 0ZM6.12566 2.04796L5.71209 1.4223L4.46076 2.24945L4.87434 2.87511L7.6 6.99954L4.87434 11.1249L4.46076 11.7506L5.71209 12.5777L6.12566 11.952L9.12566 7.41358L9.39904 7L9.12566 6.58643L6.12566 2.04796Z" fill="#2D3540" fill-rule="evenodd" transform="translate(1 1)" />
  </g>
</svg>