<svg id="Layer_1" data-name="Layer 1" xmlns="http://www.w3.org/2000/svg" xmlns:xlink="http://www.w3.org/1999/xlink" viewBox="0 0 914.79 156.08"><defs><style>.cls-1,.cls-2{fill:#fff;}.cls-2,.cls-3,.cls-4,.cls-5{fill-rule:evenodd;}.cls-3{fill:#5d7bf4;}.cls-4{fill:#4d8cf4;}.cls-5{fill:url(#linear-gradient);}</style><linearGradient id="linear-gradient" x1="1099.83" y1="541.2" x2="1420.41" y2="541.2" gradientUnits="userSpaceOnUse"><stop offset="0" stop-color="#479bf4"/><stop offset="1" stop-color="#8660f6"/></linearGradient></defs><path class="cls-1" d="M505.62,579.58h30.46q.51,8.89,6.72,13.44c4.48,3,10.41,4.48,17.92,4.48a28.54,28.54,0,0,0,13.88-3.14c3.59-2.13,5.38-4.93,5.38-8.51q0-8.07-18.81-12.09a87.08,87.08,0,0,1-12.1-2.69c-15.79-3.92-26.43-8.51-31.8-13.89-5.94-5.37-9-12.54-9-21.5,0-11.31,4.37-20.72,13-28.22,9-6.83,20.6-10.3,34.94-10.3,15.56,0,27.88,3.47,37.18,10.3,8.62,7.5,13.32,17.13,13.88,29.12H588c-5.71,0-10-2.58-13-7.62l-3.58-3.58q-5.38-4-14.78-4-8.91,0-13.44,2.69a9,9,0,0,0-4,8.06c0,4.81,7.72,8.84,23.29,12.09A26.29,26.29,0,0,0,571,546c15.23,3.92,25.87,8.4,31.8,13.44,5.71,5.38,8.51,12.54,8.51,21.5,0,13.1-4.81,23.29-14.33,30.46-9,6.61-22.4,9.86-40.31,9.86-17,0-29.68-3.48-38.08-10.31-8.62-6.83-13-16.91-13-30Z" transform="translate(-505.62 -465.15)"/><path class="cls-1" d="M992,581.73a4.17,4.17,0,0,1,3.92,5.58,46.44,46.44,0,0,1-16.9,22.78c-9.2,6.76-20.72,10.2-34.57,10.2-16.84,0-30-5.43-39.45-16.4-9.42-10.64-14.18-25.82-14.18-45.66,0-18.94,4.54-33.68,13.74-44.32,9.42-11,22.6-16.4,39.45-16.4q26.58,0,41.22,16c9.42,11,14.18,20.48,14.18,40V564a3.09,3.09,0,0,1-3.1,3.06H927.89a5.13,5.13,0,0,0-5,5.92c.92,6.24,3,11.05,6.13,14.47,3.87,4.76,9.64,7.09,17.28,7.09a24.84,24.84,0,0,0,12.85-3.1c1.78-.56,3.11-2.22,4.88-4,.33-.89,1.44-2.11,3.33-3.55s4.65-2.21,8.2-2.21Zm-28.18-34.58a3.3,3.3,0,0,0,3.27-3.8c-.89-6.07-2.84-10.69-5.8-13.93-3.88-4.1-9.31-6.2-16.4-6.2-6.54,0-11.85,2.1-15.95,6.2-3.44,3.44-5.55,8.19-6.34,14.13a3.17,3.17,0,0,0,3.13,3.6Z" transform="translate(-505.62 -465.15)"/><path class="cls-1" d="M1022.26,615.07a7.66,7.66,0,0,1-7.66-7.66V557.9c0-23,7.2-38.45,19.06-47.87,11.19-8.87,27-12.86,43-12.86h0a4.43,4.43,0,0,1,4.43,4.44v21.46a5.57,5.57,0,0,1-5.57,5.57h-4.62c-8.53,0-15,2.11-19.06,6.21s-6.21,10.64-6.21,19.5v53.06a7.66,7.66,0,0,1-7.66,7.66Z" transform="translate(-505.62 -465.15)"/><path class="cls-1" d="M750.14,615.07a7.66,7.66,0,0,1-7.66-7.66V557.9c0-23,7.2-38.45,19.06-47.87,11.19-8.87,27-12.86,43-12.86h0a4.44,4.44,0,0,1,4.44,4.44v21.46a5.57,5.57,0,0,1-5.58,5.57h-4.62c-8.53,0-15,2.11-19.06,6.21s-6.2,10.64-6.2,19.5v53.06a7.66,7.66,0,0,1-7.66,7.66Z" transform="translate(-505.62 -465.15)"/><path class="cls-1" d="M876.89,465.15H859.83v0c-11.29.21-19.54,2.75-24.63,7.52-5.65,5.32-8.42,13.3-8.42,23.93V611.75a6.32,6.32,0,0,0,6.32,6.32h17.49a6.32,6.32,0,0,0,6.33-6.32V531.56a2.58,2.58,0,0,1,2.46-2.57h14.75a2.83,2.83,0,0,0,2.83-2.82V510.09a2.83,2.83,0,0,0-2.83-2.83H856.92v-8c0-3.54.77-5.87,2.22-7.09a11.44,11.44,0,0,1,5.14-1.57h12.61a3.94,3.94,0,0,0,3.93-3.94V469.09A3.94,3.94,0,0,0,876.89,465.15Z" transform="translate(-505.62 -465.15)"/><path class="cls-2" d="M624.58,572A49.21,49.21,0,0,0,723,572V509.25a12.46,12.46,0,0,0-24.91,0v25.41h0V572a24.29,24.29,0,0,1-48.58,0V509.25a12.46,12.46,0,0,0-24.92,0Z" transform="translate(-505.62 -465.15)"/><path class="cls-3" d="M1266.41,538.47h0A14.51,14.51,0,1,0,1280.92,553,14.51,14.51,0,0,0,1266.41,538.47Z" transform="translate(-505.62 -465.15)"/><path class="cls-4" d="M1182.35,526a14.51,14.51,0,1,0,0-29h0a14.51,14.51,0,0,0,0,29Z" transform="translate(-505.62 -465.15)"/><path class="cls-5" d="M1378.4,557.53a11.88,11.88,0,0,0,3.52-2.43l35-35A12,12,0,0,0,1400,503.19l-35,35a11.79,11.79,0,0,0-2.49,3.65V477.88a12,12,0,0,0-12-12h0a12,12,0,0,0-12,12V580.12a12.44,12.44,0,0,1-24.87,0V572h-.07V544.24a47.19,47.19,0,0,0-70.56-41.05,47.65,47.65,0,0,0-10,7.68,47.11,47.11,0,0,0-13.86,33.37v35.88a12.44,12.44,0,0,1-24.87,0V546.75a12,12,0,0,0-12-12h0a12,12,0,0,0-11.95,12v6.16h0v16.32a23.32,23.32,0,0,1-46.64,0V477.88a12,12,0,1,0-23.92,0v91.35a47.19,47.19,0,0,0,70.56,41,48,48,0,0,0,8.83-6.53c.59.69,1.2,1.36,1.84,2a36.33,36.33,0,0,0,62-25.63V544.24a23.33,23.33,0,0,1,46.65,0v35.88a7.87,7.87,0,0,0,.09,1.12,36.35,36.35,0,0,0,72.67-1.12v-4.63L1400,613A12,12,0,0,0,1416.9,596Z" transform="translate(-505.62 -465.15)"/></svg>