<svg id="Layer_1" data-name="Layer 1" xmlns="http://www.w3.org/2000/svg" xmlns:xlink="http://www.w3.org/1999/xlink" viewBox="0 0 914.79 156.08"><defs><style>.cls-1,.cls-2{fill:#282828;}.cls-2,.cls-3,.cls-4,.cls-5{fill-rule:evenodd;}.cls-3{fill:#5d7bf4;}.cls-4{fill:#4d8cf4;}.cls-5{fill:url(#linear-gradient);}</style><linearGradient id="linear-gradient" x1="1095.95" y1="537.8" x2="1416.53" y2="537.8" gradientUnits="userSpaceOnUse"><stop offset="0" stop-color="#479bf4"/><stop offset="1" stop-color="#8660f6"/></linearGradient></defs><path class="cls-1" d="M501.74,576.18H532.2q.51,8.91,6.72,13.44c4.48,3,10.42,4.48,17.92,4.48A28.55,28.55,0,0,0,570.73,591c3.58-2.13,5.37-4.93,5.37-8.51q0-8.06-18.81-12.09a87.08,87.08,0,0,1-12.1-2.69c-15.79-3.92-26.42-8.51-31.8-13.89-5.93-5.37-9-12.54-9-21.5,0-11.31,4.37-20.71,13-28.22,9-6.83,20.61-10.3,34.94-10.3,15.57,0,27.88,3.47,37.18,10.3,8.62,7.51,13.32,17.14,13.88,29.12H584.16c-5.71,0-10-2.58-13-7.62L567.59,522q-5.37-4-14.78-4-8.91,0-13.44,2.69a9,9,0,0,0-4,8.06c0,4.81,7.73,8.85,23.29,12.09a26.13,26.13,0,0,0,8.51,1.8C582.37,546.51,593,551,599,556c5.71,5.38,8.51,12.54,8.51,21.5,0,13.11-4.82,23.3-14.34,30.46-9,6.61-22.39,9.86-40.31,9.86-17,0-29.68-3.47-38.08-10.3-8.62-6.84-13-16.91-13-30Z" transform="translate(-501.74 -461.76)"/><path class="cls-1" d="M988.15,578.33a4.17,4.17,0,0,1,3.92,5.58,46.46,46.46,0,0,1-16.9,22.79c-9.19,6.76-20.72,10.19-34.57,10.19-16.84,0-30-5.43-39.45-16.4C891.74,589.85,887,574.67,887,554.84c0-19,4.54-33.69,13.74-44.33,9.42-11,22.61-16.4,39.45-16.4q26.6,0,41.22,16c9.42,11,14.18,20.48,14.18,40v10.58a3.08,3.08,0,0,1-3.1,3.06H924a5.13,5.13,0,0,0-5,5.92c.92,6.24,3,11,6.13,14.47,3.88,4.77,9.64,7.09,17.28,7.09a24.9,24.9,0,0,0,12.86-3.1c1.77-.55,3.1-2.22,4.87-4,.34-.89,1.45-2.11,3.33-3.55s4.65-2.21,8.2-2.21ZM960,543.76a3.32,3.32,0,0,0,3.27-3.81c-.89-6.07-2.85-10.69-5.8-13.92-3.88-4.1-9.31-6.21-16.41-6.21-6.53,0-11.85,2.11-15.95,6.21-3.43,3.43-5.55,8.18-6.34,14.12a3.18,3.18,0,0,0,3.13,3.61Z" transform="translate(-501.74 -461.76)"/><path class="cls-1" d="M1018.38,611.68a7.66,7.66,0,0,1-7.66-7.66V554.5c0-23,7.2-38.45,19.06-47.87,11.19-8.87,27-12.85,43-12.85h0a4.43,4.43,0,0,1,4.44,4.43v21.46a5.57,5.57,0,0,1-5.58,5.57H1067c-8.53,0-15,2.11-19.06,6.21s-6.2,10.64-6.2,19.5V604a7.66,7.66,0,0,1-7.66,7.66Z" transform="translate(-501.74 -461.76)"/><path class="cls-1" d="M746.26,611.68A7.66,7.66,0,0,1,738.6,604V554.5c0-23,7.21-38.45,19.06-47.87,11.19-8.87,27-12.85,43-12.85h0a4.43,4.43,0,0,1,4.43,4.43v21.46a5.57,5.57,0,0,1-5.58,5.57h-4.62c-8.53,0-14.95,2.11-19,6.21s-6.21,10.64-6.21,19.5V604a7.66,7.66,0,0,1-7.66,7.66Z" transform="translate(-501.74 -461.76)"/><path class="cls-1" d="M873,461.76H856v0c-11.3.21-19.55,2.74-24.64,7.51-5.65,5.32-8.42,13.3-8.42,23.94V608.35a6.32,6.32,0,0,0,6.33,6.32h17.49a6.32,6.32,0,0,0,6.32-6.32V528.16a2.58,2.58,0,0,1,2.46-2.57h14.76a2.82,2.82,0,0,0,2.82-2.82V506.69a2.82,2.82,0,0,0-2.82-2.82H853v-8c0-3.55.78-5.88,2.22-7.1a11.44,11.44,0,0,1,5.14-1.57H873a3.94,3.94,0,0,0,3.94-3.94V465.69A3.94,3.94,0,0,0,873,461.76Z" transform="translate(-501.74 -461.76)"/><path class="cls-2" d="M620.71,568.63a49.21,49.21,0,0,0,98.41,0V505.86a12.46,12.46,0,0,0-24.92,0v25.4h0v37.37a24.29,24.29,0,0,1-48.58,0V505.86a12.46,12.46,0,1,0-24.91,0Z" transform="translate(-501.74 -461.76)"/><path class="cls-3" d="M1262.54,535.07h0a14.51,14.51,0,1,0,14.51,14.51A14.51,14.51,0,0,0,1262.54,535.07Z" transform="translate(-501.74 -461.76)"/><path class="cls-4" d="M1178.48,522.62a14.51,14.51,0,0,0,0-29h0a14.51,14.51,0,0,0,0,29Z" transform="translate(-501.74 -461.76)"/><path class="cls-5" d="M1374.52,554.13a11.75,11.75,0,0,0,3.52-2.43l35-35a12,12,0,0,0-16.93-16.94l-35,35a12.27,12.27,0,0,0-2.49,3.65V474.49a12,12,0,0,0-11.95-12h0a12,12,0,0,0-12,12V576.72a12.44,12.44,0,0,1-24.87,0v-8.1h-.06V540.84a47.19,47.19,0,0,0-70.56-41.05,48,48,0,0,0-10.06,7.68,47.13,47.13,0,0,0-13.86,33.37v35.88a12.44,12.44,0,1,1-24.87,0V543.35a12,12,0,0,0-12-12h0a12,12,0,0,0-12,12v6.17h0v16.31a23.32,23.32,0,0,1-46.64,0V474.49a12,12,0,1,0-23.92,0v91.34a47.14,47.14,0,0,0,79.39,34.52c.59.69,1.2,1.36,1.85,2a36.33,36.33,0,0,0,62-25.64V540.84a23.32,23.32,0,0,1,46.64,0v35.88a8,8,0,0,0,.1,1.12,36.34,36.34,0,0,0,72.66-1.12V572.1l37.47,37.46A12,12,0,0,0,1413,592.63Z" transform="translate(-501.74 -461.76)"/></svg>