<svg width="54" height="51" viewBox="0 0 54 51" fill="none" xmlns="http://www.w3.org/2000/svg">
<g filter="url(#filter0_d_20_50)">
<path fill-rule="evenodd" clip-rule="evenodd" d="M6.49064 20.1986L5.93495 18.6845L3 12.2338L6.05042 10.8461L7.41035 13.8343C11.1596 6.6231 18.6121 2 27.0041 2C36.7625 2 45.2494 8.25059 48.123 17.5541L48.6173 19.1545L45.4155 20.1438L44.9204 18.5425C42.4837 10.653 35.2839 5.35154 27.0041 5.35154C19.9804 5.35154 13.7459 9.17521 10.5248 15.1486L13.431 14.0822L14.5856 17.2284L6.49064 20.1986ZM27.8293 10.7339C23.5176 10.4409 19.2604 12.3082 16.5445 15.7056C14.6445 18.0719 13.598 21.0503 13.598 24.091C13.598 27.1316 14.6445 30.11 16.5445 32.4763C19.1019 35.6651 22.9377 37.5038 27.0041 37.4971C31.0913 37.4971 34.9035 35.6667 37.4638 32.4763C39.3637 30.11 40.4103 27.1316 40.4103 24.091C40.4103 21.0503 39.3637 18.0719 37.4638 15.7056C35.0895 12.7466 31.63 10.9768 27.8293 10.7339ZM34.8503 17.8035C35.9404 19.1609 36.6402 20.732 36.9193 22.4152H33.0627C32.9429 21.0935 32.6813 19.7972 32.2679 18.549C31.7721 17.1204 31.1828 15.7825 30.2998 14.5903C32.0656 15.2013 33.644 16.3003 34.8503 17.8035ZM28.9196 28.8654C28.446 30.145 27.7603 31.3394 26.9329 32.4332C26.1094 31.3319 25.4278 30.1274 24.9585 28.8343L24.9528 28.8186C24.9329 28.7636 24.8824 28.6244 24.8685 28.5929C24.5603 27.6793 24.3845 26.7294 24.2708 25.7667H29.6746C29.556 26.7192 29.3471 27.6661 29.0203 28.6109C28.9794 28.6928 28.9466 28.7779 28.9196 28.8654ZM24.2465 22.4152C24.3615 21.4482 24.5656 20.4895 24.8849 19.5366C24.9135 19.4793 24.9389 19.4204 24.9601 19.3598C25.437 18.0347 26.1383 16.8013 26.9894 15.676C27.9221 16.8656 28.5925 18.1487 29.0849 19.5971C29.3836 20.4993 29.553 21.4456 29.662 22.4152H24.2465ZM19.1579 17.8035C20.3411 16.3293 21.883 15.2447 23.6192 14.6269C22.8951 15.7348 22.2839 16.9153 21.8303 18.1587C21.7804 18.2732 21.7362 18.3951 21.6937 18.5236C21.2684 19.7839 20.9991 21.088 20.8725 22.4152H17.0889C17.368 20.732 18.0678 19.1609 19.1579 17.8035ZM19.1579 30.3784C18.0678 29.021 17.368 27.4499 17.0889 25.7667H20.8724C20.9992 27.0985 21.2691 28.4073 21.697 29.6763C21.7428 29.813 21.7903 29.9471 21.8083 29.9766C22.2676 31.2441 22.887 32.4464 23.614 33.5601C21.8859 32.9423 20.3416 31.8533 19.1579 30.3784ZM34.8503 30.3784C33.6353 31.8926 32.0431 32.9951 30.2306 33.6032C30.99 32.4623 31.6214 31.2396 32.0903 29.9553C32.1345 29.853 32.173 29.7508 32.2082 29.646C32.6411 28.3947 32.9154 27.1023 33.0471 25.7667H36.9193C36.6402 27.4499 35.9404 29.021 34.8503 30.3784ZM48.0794 29.5118L47.5413 27.9947L39.2598 30.9297L40.3792 34.0881L43.514 32.9773C40.3018 38.983 34.0498 42.8303 27.0041 42.8303C18.7243 42.8303 11.5245 37.5289 9.08777 29.6393L8.59273 28.038L5.39093 29.0273L5.88515 30.6278C8.75883 39.9312 17.2457 46.1818 27.0041 46.1818C35.3789 46.1818 42.8167 41.5784 46.5741 34.3925L47.9349 37.4675L51 36.1109L48.0794 29.5118Z" fill="url(#paint0_linear_20_50)" style=""/>
</g>
<defs>
<filter id="filter0_d_20_50" x="0" y="0" width="54" height="50.1819" filterUnits="userSpaceOnUse" color-interpolation-filters="sRGB">
<feFlood flood-opacity="0" result="BackgroundImageFix"/>
<feColorMatrix in="SourceAlpha" type="matrix" values="0 0 0 0 0 0 0 0 0 0 0 0 0 0 0 0 0 0 127 0" result="hardAlpha"/>
<feOffset dy="1"/>
<feGaussianBlur stdDeviation="1.5"/>
<feComposite in2="hardAlpha" operator="out"/>
<feColorMatrix type="matrix" values="0 0 0 0 0 0 0 0 0 0 0 0 0 0 0 0 0 0 0.15 0"/>
<feBlend mode="normal" in2="BackgroundImageFix" result="effect1_dropShadow_20_50"/>
<feBlend mode="normal" in="SourceGraphic" in2="effect1_dropShadow_20_50" result="shape"/>
</filter>
<linearGradient id="paint0_linear_20_50" x1="21" y1="2" x2="34.5" y2="46" gradientUnits="userSpaceOnUse">
<stop stop-color="#98A2B3" style="stop-color:#98A2B3;stop-color:color(display-p3 0.5950 0.6344 0.7000);stop-opacity:1;"/>
<stop offset="1" stop-color="#3A4159" style="stop-color:#3A4159;stop-color:color(display-p3 0.2275 0.2540 0.3500);stop-opacity:1;"/>
</linearGradient>
</defs>
</svg>
