<svg width="68" height="47" viewBox="0 0 68 47" fill="none" xmlns="http://www.w3.org/2000/svg">
<g filter="url(#filter0_d_20_52)">
<path fill-rule="evenodd" clip-rule="evenodd" d="M46.0721 6.62821H45.8293C44.7898 6.62821 43.9474 5.78578 43.9502 4.74911C43.9502 3.71243 44.7898 2.87 45.8293 2.87H51.9207C52.9574 2.87 53.7999 3.70957 53.7999 4.74911C53.7999 5.78578 52.9603 6.62821 51.9207 6.62821H51.4981V9.25267H46.0721V6.62821ZM45.2495 11.1233C46.3804 10.8491 47.5569 10.712 48.7792 10.712C57.3122 10.712 64.2457 17.646 64.2457 26.179C64.2457 34.7119 57.3118 41.6458 48.7789 41.6458C40.2459 41.6458 33.312 34.7122 33.312 26.179C33.312 18.9939 38.1899 12.8139 45.1695 11.1347L45.2495 11.1233ZM35.9509 26.1789C35.9509 33.2499 41.7082 39.0072 48.7792 39.0072C55.8613 39.0072 61.6186 33.2499 61.6186 26.1789C61.6186 19.0964 55.8616 13.3505 48.7792 13.3505C41.7082 13.3505 35.9509 19.0965 35.9509 26.1789ZM38.2355 26.1789C38.2355 20.3644 42.9648 15.6351 48.7792 15.6351C54.5939 15.6351 59.3346 20.3644 59.3346 26.1789C59.3346 31.9933 54.5937 36.7226 48.7792 36.7226C42.9647 36.7226 38.2355 31.9933 38.2355 26.1789ZM54.4451 29.9027C55.0276 30.1312 55.6902 29.8342 55.9187 29.2516C56.2499 28.3834 56.4217 27.4698 56.4217 26.5216C56.4217 24.991 55.9533 23.563 55.1766 22.3636L56.0676 21.5068C56.5245 21.0727 56.536 20.3416 56.1019 19.8847C55.6678 19.4278 54.9367 19.4163 54.4797 19.8619L53.6573 20.65C52.3322 19.5534 50.6301 18.8794 48.7795 18.8794C44.5754 18.8794 41.1485 22.3177 41.1485 26.5215C41.1485 27.4696 41.3198 28.3835 41.6511 29.2516C41.8224 29.6971 42.2565 29.9827 42.7134 29.9827C42.8505 29.9827 42.999 29.9599 43.1247 29.9027C43.7187 29.6743 44.0157 29.0118 43.7872 28.4292C43.5587 27.8237 43.4331 27.184 43.4331 26.5215C43.4331 23.5743 45.832 21.164 48.7792 21.164C49.9786 21.164 51.0866 21.5867 51.9776 22.2606L47.991 26.0988C47.534 26.5329 47.5226 27.264 47.9567 27.7095C48.1852 27.9494 48.4822 28.0636 48.7792 28.0636C49.0648 28.0636 49.3504 27.9608 49.5788 27.7438L53.4741 23.9969C53.8854 24.7508 54.1367 25.6076 54.1367 26.5215C54.1367 27.184 54.011 27.8237 53.7825 28.4292C53.554 29.0117 53.8511 29.6743 54.4451 29.9027ZM31.3355 26.9445C31.2812 25.7536 31.3498 24.7455 31.4269 24.2829C32.0209 18.7998 35.1851 14.025 39.8344 11.3288C31.2558 10.6206 25.6126 13.4764 22.5508 15.7381C19.5579 17.9657 15.6626 18.5483 12.2125 17.1546C12.0868 17.0975 11.9498 17.0404 11.8241 16.9947C9.05972 15.8295 6.39806 14.5501 3.78216 13.0994C3.78216 13.0994 3.01679 18.5025 9.50517 23.8142C10.9217 24.9679 12.6351 25.7447 14.4514 25.9846C15.8565 26.1788 17.0673 25.9846 18.4381 25.6419C20.0602 25.2421 21.9336 25.5848 22.6761 27.2755C23.5329 29.2403 21.7509 31.6506 19.729 31.9133C18.994 32.0157 18.2211 31.8528 17.4783 31.6963L17.4782 31.6963C17.309 31.6606 17.1413 31.6253 16.976 31.5935C11.6299 30.5654 6.39791 34.415 6.14715 39.8635C6.13573 40.1148 6.1243 40.3776 6.13573 40.6517C6.13573 40.6517 6.59266 40.3775 7.40372 39.9777C12.7384 37.3504 16.6797 37.6817 21.9567 40.4232C25.5779 42.3081 31.8037 43.9073 41.8671 42.0339C35.8927 39.5208 31.6319 33.7405 31.3351 26.9436L31.3355 26.9445Z" fill="url(#paint0_linear_20_52)" style=""/>
</g>
<defs>
<filter id="filter0_d_20_52" x="0.754272" y="0.869995" width="66.4915" height="46.0001" filterUnits="userSpaceOnUse" color-interpolation-filters="sRGB">
<feFlood flood-opacity="0" result="BackgroundImageFix"/>
<feColorMatrix in="SourceAlpha" type="matrix" values="0 0 0 0 0 0 0 0 0 0 0 0 0 0 0 0 0 0 127 0" result="hardAlpha"/>
<feOffset dy="1"/>
<feGaussianBlur stdDeviation="1.5"/>
<feComposite in2="hardAlpha" operator="out"/>
<feColorMatrix type="matrix" values="0 0 0 0 0 0 0 0 0 0 0 0 0 0 0 0 0 0 0.15 0"/>
<feBlend mode="normal" in2="BackgroundImageFix" result="effect1_dropShadow_20_52"/>
<feBlend mode="normal" in="SourceGraphic" in2="effect1_dropShadow_20_52" result="shape"/>
</filter>
<linearGradient id="paint0_linear_20_52" x1="26.4386" y1="2.86999" x2="35.6003" y2="44.4358" gradientUnits="userSpaceOnUse">
<stop stop-color="#98A2B3" style="stop-color:#98A2B3;stop-color:color(display-p3 0.5950 0.6344 0.7000);stop-opacity:1;"/>
<stop offset="1" stop-color="#3A4159" style="stop-color:#3A4159;stop-color:color(display-p3 0.2275 0.2540 0.3500);stop-opacity:1;"/>
</linearGradient>
</defs>
</svg>
