<svg width="45" height="54" viewBox="0 0 45 54" fill="none" xmlns="http://www.w3.org/2000/svg">
<g filter="url(#filter0_d_20_51)">
<path fill-rule="evenodd" clip-rule="evenodd" d="M21.7932 47.2518L22.4435 48.1113L22.4479 48.1108C22.9384 48.725 23.4896 49.2763 24.1286 49.706H9.37343C6.07069 49.706 3.38196 47.0175 3.38196 43.7145V7.99148C3.38196 4.68873 6.07046 2 9.37343 2H27.2833C30.5861 2 33.2748 4.6885 33.2748 7.99148V28.21C32.6246 28.3787 31.4164 29.002 30.8201 29.3282V7.99401C30.8201 6.0433 29.2384 4.45932 27.2854 4.45932H25.3819L24.8284 5.75979C24.4347 6.96131 23.3299 7.76004 22.0655 7.76004H14.5891C13.3246 7.76004 12.2198 6.9635 11.8261 5.75979L11.2726 4.45932H9.36912C7.41841 4.45932 5.83443 6.04105 5.83443 7.99401L5.83668 43.7171C5.83668 45.6678 7.41841 47.2518 9.37137 47.2518H21.7932ZM15.4461 44.7543C14.7666 44.7543 14.2176 44.2031 14.2176 43.5258C14.2176 42.8464 14.7666 42.2974 15.4461 42.2974H17.7794C18.4588 42.2974 19.0078 42.8486 19.0078 43.5258C19.0078 44.2053 18.4589 44.7543 17.7794 44.7543H15.4461ZM41.8384 40.0945C41.8712 38.2625 40.4984 36.0239 39.2912 34.0554C38.7637 33.1953 38.2679 32.3867 37.9347 31.6862C37.0324 30.0797 34.9715 29.4002 33.2705 30.1629C33.2652 30.1471 32.4457 30.5693 31.7548 30.9253C31.2677 31.1763 30.8446 31.3943 30.8158 31.4026L26.7658 33.4524C26.3361 33.6729 25.7961 33.5514 25.5014 33.1576L21.2422 27.5844C19.9979 25.8272 16.9875 26.6057 16.7872 28.7634C16.7017 29.4137 16.8727 30.0774 17.2777 30.6039L22.7159 37.7226C23.1689 38.3143 23.6776 38.9806 24.1971 39.6613C24.7484 40.3835 25.3119 41.1218 25.8344 41.804C26.1539 42.2225 26.0594 42.8232 25.6274 43.1225C25.2201 43.4038 24.6666 43.3183 24.3696 42.9223C23.7082 42.0493 22.8599 40.9311 22.3604 40.2988C21.0959 41.0886 20.6909 42.7895 21.6247 43.9933C21.6674 44.081 24.1581 47.3165 24.1289 47.2467C25.2404 48.4302 26.7794 49.3504 28.4016 49.6047L31.3109 49.9985C31.5066 50.0075 31.7091 49.976 31.8756 49.8635L41.4987 43.296C41.7192 43.1362 41.8542 42.891 41.8542 42.621L41.843 40.092L41.8384 40.0945ZM23.0758 24.7541C21.9598 23.6382 20.4726 23.0217 18.8931 23.0217H18.8954C15.7141 22.956 12.9129 25.7596 12.9782 28.9388C12.9782 30.5206 13.5924 32.0055 14.7107 33.1238C15.4914 33.8527 14.8929 35.2522 13.8422 35.2185C13.5272 35.2185 13.2144 35.0992 12.9737 34.8585C11.392 33.2769 10.5212 31.1755 10.5212 28.939C10.4291 24.4392 14.3933 20.4747 18.8933 20.567C20.576 20.3195 26.6353 22.5177 24.8128 24.7541C24.3313 25.2334 23.555 25.2334 23.0758 24.7541Z" fill="url(#paint0_linear_20_51)" style=""/>
</g>
<defs>
<filter id="filter0_d_20_51" x="0.381958" y="0" width="44.4723" height="53.9999" filterUnits="userSpaceOnUse" color-interpolation-filters="sRGB">
<feFlood flood-opacity="0" result="BackgroundImageFix"/>
<feColorMatrix in="SourceAlpha" type="matrix" values="0 0 0 0 0 0 0 0 0 0 0 0 0 0 0 0 0 0 127 0" result="hardAlpha"/>
<feOffset dy="1"/>
<feGaussianBlur stdDeviation="1.5"/>
<feComposite in2="hardAlpha" operator="out"/>
<feColorMatrix type="matrix" values="0 0 0 0 0 0 0 0 0 0 0 0 0 0 0 0 0 0 0.15 0"/>
<feBlend mode="normal" in2="BackgroundImageFix" result="effect1_dropShadow_20_51"/>
<feBlend mode="normal" in="SourceGraphic" in2="effect1_dropShadow_20_51" result="shape"/>
</filter>
<linearGradient id="paint0_linear_20_51" x1="17.809" y1="2" x2="36.3533" y2="46.59" gradientUnits="userSpaceOnUse">
<stop stop-color="#98A2B3" style="stop-color:#98A2B3;stop-color:color(display-p3 0.5950 0.6344 0.7000);stop-opacity:1;"/>
<stop offset="1" stop-color="#3A4159" style="stop-color:#3A4159;stop-color:color(display-p3 0.2275 0.2540 0.3500);stop-opacity:1;"/>
</linearGradient>
</defs>
</svg>
